<svg id="Calque_2" data-name="Calque 2" xmlns="http://www.w3.org/2000/svg" viewBox="0 0 1153.61 1054.73"><polygon id="France_métropolitaine" data-name="France métropolitaine" class="cls-1" points="283.61 139.81 329.61 144.81 329.61 185.41 351.61 179.81 402.61 193.81 435.61 185.81 423.61 174.81 446.85 139.81 514.61 128.81 538.46 91.92 541.61 24.22 615.61 6.81 634.61 49.81 653.61 40.81 668.61 64.81 691.61 78.81 691.61 94.07 725.61 93.81 733.61 112.81 733.61 139.2 759.61 141.81 778.61 114.81 778.61 151.02 822.61 182.81 874.55 193.81 917.61 230.81 1021.61 251.81 982.61 343.81 976.61 419.81 933.61 437.81 889.61 497.81 854.61 544.81 865.61 566.81 888.61 542.81 918.61 544.81 918.61 574.81 932.61 595.81 914.61 614.81 950.61 664.81 937.61 683.81 901.61 690.81 931.61 718.81 935.61 747.81 929.61 772.81 950.61 806.81 989.54 806.81 978.61 844.81 914.61 887.81 910.61 916.81 849.61 925.81 785.61 890.81 728.61 871.81 671.61 871.81 610.61 929.81 618.61 991.81 514.55 991.81 463.61 955.81 412.61 933.81 412.61 948.81 325.61 928.81 276.61 905.81 232.61 880.81 246.61 872.81 210.61 854.81 242.61 830.81 283.61 711.81 296.61 619.81 313.61 619.81 294.61 541.81 237.61 470.81 237.61 445.81 246.61 434.81 236.61 410.81 210.61 403.56 175.61 369.81 110.61 335.81 70.61 331.81 52.61 292.81 73.61 290.81 68.61 267.81 52.61 267.08 52.61 248.81 91.61 230.81 147.61 236.81 156.61 222.81 181.61 228.81 216.61 259.81 240.61 247.81 304.61 258.81 295.61 243.81 299.61 202.81 282.61 171.81 283.61 139.81"/><g id="Calque_35" data-name="Calque 35"><polygon id="Corse" class="cls-3" points="1090.61 856.81 1100.61 956.81 1084.61 979.81 1076.61 1031.81 1034.61 1019.81 1034.61 989.68 1023.61 958.81 1017.61 917.81 1059.11 883.29 1073.61 885.81 1074.61 848.81 1090.61 856.81"/><g id="Guadeloupe"><polygon class="cls-3" points="22.61 554.81 47.61 567.81 57.6 554.81 50.61 542.81 62.61 531.81 74.61 545.81 77.61 559.81 105.61 573.81 64.11 582.66 47.61 578.81 47.61 605.81 26.61 620.81 14.61 581.81 22.61 554.81"/><polygon class="cls-3" points="88.61 609.81 82.61 618.81 85.61 628.99 102.61 626.81 102.61 612.28 88.61 609.81"/></g><g id="Martinique"><polygon class="cls-3" points="24.61 671.81 39.61 661.81 64.61 674.81 86.61 698.81 102.61 730.25 109.61 749.81 98.61 767.81 91.61 761.81 91.61 751.81 61.61 748.81 56.61 755.81 50.61 733.81 70.61 732.81 64.61 721.81 45.61 719.81 32.61 698.81 33.61 691.81 24.61 679.14 24.61 671.81"/></g><g id="La_Réunion" data-name="La Réunion"><polygon class="cls-3" points="26.61 945.81 36.34 945.81 51.61 933.81 96.61 943.81 105.61 969.81 125.61 990.81 120.61 1030.81 90.61 1035.81 45.61 1018.81 25.61 1001.81 12.61 968.81 26.61 960.81 26.61 945.81"/></g><g id="St-Pierre-et-Miquelon"><polygon class="cls-3" points="163.61 942.81 184.61 960.81 178.61 976.81 174.11 997.95 188.61 1001.81 186.61 1011.81 167.61 1027.81 159.61 1014.81 169.61 1001.81 169.61 974.81 160.61 964.81 163.61 942.81"/><polygon class="cls-5" points="185.61 1028.81 199.61 1014.81 202.31 1028.81 185.61 1028.81"/></g><g id="Mayotte"><polygon class="cls-3" points="267.11 951.31 279.11 968.31 299.51 968.31 304.11 979.31 290.11 996.31 297.11 1004.31 285.61 1023.5 293.11 1032.31 271.11 1034.31 263.11 1026.31 266.55 1014.81 278.11 1018.31 268.11 998.31 268.11 979.31 252.11 970.31 267.11 951.31"/></g><g id="Guyanne"><polygon class="cls-3" points="44.61 786.81 77.61 797.81 119.61 828.81 121.61 842.81 99.61 877.81 89.61 900.81 68.61 903.81 50.61 900.81 41.61 907.81 22.61 898.81 39.61 883.81 44.61 858.81 29.61 832.81 28.61 805.81 44.61 786.81"/></g></g><g id="box"><polygon class="cls-4" points="946.19 1052.73 946.19 901.91 1074.53 806.81 1151.61 806.81 1151.61 1052.73 946.19 1052.73"/><polygon class="cls-4" points="2 499.31 133.78 499.31 133.78 644.28 133.78 916.52 262.73 916.52 344.61 967.81 344.61 1052.73 2 1052.73 2 499.31"/><polyline class="cls-4" points="133.78 644.28 2 644.28 2 778.96 133.78 778.96 133.78 916.52 2 916.52 2 1052.73 133.78 1052.73 227.63 1052.73 227.63 916.52"/><g id="Calque_4" data-name="Calque 4"><line class="cls-4" x1="133.78" y1="1052.73" x2="133.78" y2="916.52"/></g></g></svg>