<svg xmlns="http://www.w3.org/2000/svg" viewBox="0 0 1291 1080"><g id="Calque_36" data-name="Calque 36"><rect class="cls-1" width="1291" height="1080"/></g><g id="Calque_2" data-name="Calque 2"><g id="Calque_33" data-name="Calque 33"><g id="Bretagne"><polygon class="cls-8" points="284.88 415.91 323 402 329 385 355 386 380 373 393 380 409 357 412 299 381.42 299 376.24 277.15 323 268 299 280 264 249 239 243 230 257 174 251 135 269 135 287.27 151 288 156 311 135 313 153 352 193 356 258 390 284.88 415.91"/></g><g id="Normandie"><polygon class="cls-8" points="412 299 443.5 309.5 479.5 300.5 485.5 317.5 509.5 312.5 550.5 344.5 548.5 327.5 565.42 321.75 553.5 289.5 595.5 285.5 605.5 252.5 632.5 229.5 624 178.73 630.5 172.5 624 145.42 604.1 138.02 597 149 529.24 160 506 195 518 206 485 214 434 200 412 205.6 412 165 366 160 365 192 382 223 378 264 387 279 376.24 277.15 381.42 299 412 299"/></g><g id="Hauts-de-France"><polygon class="cls-8" points="625.45 235.51 679.33 241.26 721.5 253.5 726.5 249.5 747.5 276.5 761 276.5 772.5 248.5 769.5 227.5 796.5 220.5 796.5 194.85 801.12 194.85 815.5 169.5 816 159.39 816 133 808 114 774 114.25 774 99 751 85 736 61 717 70 698 27 624 44.4 620.85 112.1 604.1 138.02 624 145.42 630.5 172.5 624 178.73 632.5 229.5 625.45 235.51"/></g><g id="Bourgogne-Franche-Comté"><path class="cls-8" d="M1057.5,340.5l25-4,22,25,17,25h44.1l8.9-11,21,19v17.43s23,18.57,25,18.57,17-10,17-10l15-1,4-18,24-21,42,14,23,14,3,16,20.08,26.56L1352,458l-79,107,3.47,7-15,8.55-27-3-24-26h-15l-13,38-13-14h-22l-.17,14-31.83-3-5-11,8-9,1-14-15-4-12.51-29h-5.92l.43,9-14,1-24-14,3-46-12-19,6.55-30-9.55-17,15-2,6-15-7-27Z" transform="translate(-336 0)"/></g><g id="Grand_Est" data-name="Grand Est"><polygon class="cls-8" points="755.45 276.5 757.5 311.5 746.5 336.5 768.5 361.5 785.5 386.5 829.6 386.5 838.5 375.5 859.5 394.5 859.5 411.93 884.5 430.5 901.5 420.5 916.5 419.5 920.5 401.5 944.5 380.5 986.5 394.5 1009.5 408.5 1012.5 424.5 1032.58 451.06 1059 440 1065 364 1104 272 1000 251 956.94 214 905 203 861 171.21 861 135 842 162 816 159.39 815.5 169.5 801.12 194.85 796.5 194.85 796.5 220.5 769.5 227.5 772.5 248.5 761 276.5 755.45 276.5"/></g><g id="Île-de-France"><polygon class="cls-8" points="602.66 261.87 612.5 295.5 624 316.76 637.5 326.5 639.5 338.5 665.12 338.5 680.5 351.5 675.5 359.5 714.5 359.5 721.5 340.5 746.5 336.5 757.5 311.5 755.45 276.5 747.5 276.5 726.5 249.5 721.5 253.5 679.33 241.26 625.45 235.51 605.5 252.5 602.66 261.87"/></g><g id="Centre-Val_de_Loire" data-name="Centre-Val de Loire"><polygon class="cls-8" points="550.5 344.5 548.5 327.5 565.42 321.75 553.5 289.5 595.5 285.5 602.66 261.87 612.5 295.5 624 316.76 637.5 326.5 639.5 338.5 665.12 338.5 680.5 351.5 675.5 359.5 714.5 359.5 721.5 386.5 715.5 401.5 700.5 403.5 710.05 420.52 703.5 450.5 715.5 469.5 712.5 515.5 700.5 511.87 675.5 525.5 676.5 542.5 650.5 545.5 647.5 554.5 588.5 550.5 578.5 557.5 565.5 552.5 544.5 524.5 547.5 509.5 527.5 479.5 516.5 487.5 504.5 484.5 504.5 473.66 491.5 470.5 483.5 459.5 485.5 438.5 501.5 411.5 528.5 403.5 551.5 374.5 550.5 344.5"/></g><g id="Pays_de_la_Loire" data-name="Pays de la Loire"><polygon class="cls-8" points="368.5 550.5 429.5 545.5 423.5 526.5 428.46 519.5 409.5 473.5 437.5 471.5 441.5 463.5 471.21 463.5 483.5 459.5 485.5 438.5 501.5 411.5 528.5 403.5 551.5 374.5 550.5 344.5 509.5 312.5 485.5 317.5 479.5 300.5 443.5 309.5 412 299 409 357 393 380 380 373 355 386 329 385 323 402 284.88 415.91 293 423.75 319 431 329 455 320 466 320 491 368.5 550.5"/></g><g id="Nouvelle-Aquitaine"><polygon class="cls-8" points="624 719.63 640.5 689.5 663.5 668.5 663.5 633.18 656.5 623.5 674.5 603.5 657.5 564.5 647.5 554.5 588.5 550.5 578.5 557.5 565.5 552.5 544.5 524.5 547.5 509.5 527.5 479.5 516.5 487.5 504.5 484.5 504.5 473.66 491.5 470.5 483.5 459.5 471.21 463.5 441.5 463.5 437.5 471.5 409.5 473.5 428.46 519.5 422.5 525.5 429.5 545.5 368.5 550.5 377 562 396 640 379 640 366 732 325 851 293 875 329 893 315 901 359 926 408 949 422.5 921.5 440.5 908.5 439.5 866.5 429.5 859.5 431.5 830.5 509.5 817.5 527.5 792.5 533.5 764.5 572.5 727.5 574.5 707.5 591.5 710.5 601.5 727.5 611.5 719.5 624 719.63"/></g><g id="Auvergne-Rhône-Alpes"><path class="cls-8" d="M1165.5,808.5l-16-9-34,3-13-53-23-15-16-7-23,5-8,25-14-32-18,9-9,23s-23,1-23,0-8.5-37.87-8.5-37.87l16.5-30.13,23-21V633.18l-7-9.68,18-20-17-39-10-10,3-9,26-3-1-17,25-13.63,12,3.63,24,14,14-1-.43-9H1092l12.51,29,15,4-1,14-8,9,5,11,31.83,3,.17-14h22l13,14,13-38h15l24,26,27,3,15-8.55,7.53,15,23-24,30,2v30l14,21-18,19,36,50-13,19-36,7-28.5,4.5,11,28-33,1-26,27-3,16-12,2,1,11,12,3,8,12-21,10-27-15-9-18-12,5,6,10Z" transform="translate(-336 0)"/></g><g id="Provence-Alpes-Cöte_d_Azur" data-name="Provence-Alpes-Cöte d&apos;Azur"><polygon class="cls-8" points="843.5 838.5 826.5 874.5 814.85 874.5 811 892 868 911 932 946 993 937 997 908 1061 865 1071.92 827 1033 827 1012 793 1018 768 1014 739 984 711 955.5 715.5 966.5 743.5 933.5 744.5 907.5 771.5 904.5 787.5 892.5 789.5 893.5 800.5 905.5 803.5 913.5 815.5 892.5 825.5 865.5 810.5 856.5 792.5 844.5 797.5 850.5 807.5 829.5 808.5 843.5 838.5"/></g><g id="Occitanie"><polygon class="cls-8" points="843.5 838.5 829.5 808.5 813.5 799.5 779.5 802.5 766.5 749.5 743.5 734.5 727.5 727.5 704.5 732.5 696.5 757.5 682.5 725.5 664.5 734.5 655.5 757.5 632.5 757.5 624 719.63 611.5 719.5 601.5 727.5 591.5 710.5 574.5 707.5 572.5 727.5 533.5 764.5 527.5 792.5 509.5 817.5 431.5 830.5 429.5 859.5 439.5 866.5 440.5 908.5 422.5 921.5 408 949 495 969 495 954 546 976 596.94 1012 701 1012 693 950 754 892 811 892 814.85 874.5 826.5 874.5 843.5 838.5"/></g><polygon id="Corse" class="cls-9" points="1173 877 1183 977 1167 1000 1159 1052 1117 1040 1117 1009.87 1106 979 1100 938 1141.5 903.48 1156 906 1157 869 1173 877"/><g id="Guadeloupe"><polygon class="cls-9" points="105 575 130 588 139.99 575 133 563 145 552 157 566 160 580 188 594 146.5 602.85 130 599 130 626 109 641 97 602 105 575"/><polygon class="cls-9" points="171 630 165 639 168 649.18 185 647 185 632.46 171 630"/></g><g id="Martinique"><polygon class="cls-9" points="107 692 122 682 147 695 169 719 185 750.43 192 770 181 788 174 782 174 772 144 769 139 776 133 754 153 753 147 742 128 740 115 719 116 712 107 699.33 107 692"/></g><g id="La_Réunion" data-name="La Réunion"><polygon class="cls-10" points="109 966 118.73 966 134 954 179 964 188 990 208 1011 203 1051 173 1056 128 1039 108 1022 95 989 109 981 109 966"/></g><g id="St-Pierre-et-Miquelon"><polygon class="cls-10" points="246 963 267 981 261 997 256.5 1018.13 271 1022 269 1032 250 1048 242 1035 252 1022 252 995 243 985 246 963"/><polygon class="cls-11" points="268 1049 282 1035 284.7 1049 268 1049"/></g><g id="Mayotte"><polygon class="cls-10" points="349.5 971.5 361.5 988.5 381.9 988.5 386.5 999.5 372.5 1016.5 379.5 1024.5 368 1043.69 375.5 1052.5 353.5 1054.5 345.5 1046.5 348.94 1035 360.5 1038.5 350.5 1018.5 350.5 999.5 334.5 990.5 349.5 971.5"/></g><g id="Guyanne"><polygon class="cls-9" points="127 807 160 818 202 849 204 863 182 898 172 921 151 924 133 921 124 928 105 919 122 904 127 879 112 853 111 826 127 807"/></g></g></g></svg>