<svg xmlns="http://www.w3.org/2000/svg" viewBox="0 0 1291 1080"><g id="Calque_36" data-name="Calque 36"><rect class="cls-1" width="1291" height="1080"/></g><g id="Calque_2" data-name="Calque 2"><g id="villes"><g id="names"><rect class="cls-6" x="697" y="94" width="54" height="23"/><path class="cls-5" d="M1050.28,113.08H1040V98h4v11.51h6.35Z" transform="translate(-336 0)"/><path class="cls-5" d="M1056.17,99.12a1.9,1.9,0,0,1-.64,1.47,2.69,2.69,0,0,1-3.34,0,2,2,0,0,1,0-3,2.69,2.69,0,0,1,3.34,0A1.9,1.9,0,0,1,1056.17,99.12Zm-.48,14h-3.6V101.76h3.6Z" transform="translate(-336 0)"/><path class="cls-5" d="M1061.69,113.08h-3.64V98h3.64Z" transform="translate(-336 0)"/><path class="cls-5" d="M1067.69,113.08H1064V98h3.65Z" transform="translate(-336 0)"/><path class="cls-5" d="M1075.16,113.27a6.2,6.2,0,0,1-3.07-.74,5.25,5.25,0,0,1-2-2.06,6.36,6.36,0,0,1-.72-3.07,6.06,6.06,0,0,1,.74-3,5.51,5.51,0,0,1,2.07-2.08,5.92,5.92,0,0,1,3-.76,6,6,0,0,1,2.54.53,5.41,5.41,0,0,1,1.91,1.46,5.61,5.61,0,0,1,1.08,2.17,6.06,6.06,0,0,1,.06,2.62h-9.23v-2.25h5.38a1.93,1.93,0,0,0-.52-1.37,1.81,1.81,0,0,0-1.31-.5,1.87,1.87,0,0,0-1.15.34,2.2,2.2,0,0,0-.68,1.07,6.09,6.09,0,0,0-.23,1.81,5.48,5.48,0,0,0,.23,1.69,2,2,0,0,0,.7,1,1.85,1.85,0,0,0,1.15.34,2.31,2.31,0,0,0,1.26-.32,1.79,1.79,0,0,0,.74-.92h3.6a5.24,5.24,0,0,1-2,3A5.78,5.78,0,0,1,1075.16,113.27Z" transform="translate(-336 0)"/><rect class="cls-6" x="516" y="230" width="76" height="23"/><path class="cls-5" d="M862.93,249.08h-4V234h6.19a7.53,7.53,0,0,1,4.74,1.31,4.48,4.48,0,0,1,1.68,3.74,4.3,4.3,0,0,1-.84,2.6,5.53,5.53,0,0,1-2.36,1.8l3.7,5.66h-4.73l-3.1-5h-1.3Zm0-11.83v3.51h2a3.64,3.64,0,0,0,2-.42,1.47,1.47,0,0,0,.63-1.32,1.52,1.52,0,0,0-.63-1.34,3.54,3.54,0,0,0-2-.43Z" transform="translate(-336 0)"/><path class="cls-5" d="M878.33,249.29a5.9,5.9,0,0,1-4.21-1.72,6,6,0,0,1-1.25-1.87,6,6,0,0,1,0-4.57,6,6,0,0,1,1.25-1.87A5.76,5.76,0,0,1,876,238a5.94,5.94,0,0,1,2.33-.46,6,6,0,0,1,2.34.46,5.71,5.71,0,0,1,1.87,1.26,6,6,0,0,1,1.25,1.87,5.91,5.91,0,0,1,0,4.57,6,6,0,0,1-1.25,1.87,5.71,5.71,0,0,1-1.87,1.26A5.85,5.85,0,0,1,878.33,249.29Zm0-3.22a2,2,0,0,0,1.07-.3,2.13,2.13,0,0,0,.79-.88,3.08,3.08,0,0,0,.31-1.47,3.15,3.15,0,0,0-.31-1.48,2.09,2.09,0,0,0-2.91-.87,2,2,0,0,0-.81.87,3.28,3.28,0,0,0-.3,1.48,3.21,3.21,0,0,0,.3,1.47,2.11,2.11,0,0,0,1.86,1.18Z" transform="translate(-336 0)"/><path class="cls-5" d="M892.6,244.22v-6.46h3.6v11.32h-3.31v-1.22a3.37,3.37,0,0,1-1.31,1,4.38,4.38,0,0,1-1.84.4,4.22,4.22,0,0,1-2-.48,3.27,3.27,0,0,1-1.42-1.45,5.17,5.17,0,0,1-.52-2.47v-7.13h3.6v6.46a1.94,1.94,0,0,0,.43,1.38,1.56,1.56,0,0,0,1.19.47,1.58,1.58,0,0,0,.73-.2,1.8,1.8,0,0,0,.62-.61A2,2,0,0,0,892.6,244.22Z" transform="translate(-336 0)"/><path class="cls-5" d="M903.67,249.27a6.13,6.13,0,0,1-3.06-.74,5.12,5.12,0,0,1-2-2.06,6.25,6.25,0,0,1-.73-3.07,6,6,0,0,1,.75-3,5.42,5.42,0,0,1,2.06-2.08,6.32,6.32,0,0,1,5.54-.23,5.33,5.33,0,0,1,1.91,1.46,5.61,5.61,0,0,1,1.08,2.17,6.21,6.21,0,0,1,.07,2.62H900v-2.25h5.38a1.93,1.93,0,0,0-.52-1.37,1.8,1.8,0,0,0-1.31-.5,1.82,1.82,0,0,0-1.14.34,2.15,2.15,0,0,0-.69,1.07,6.09,6.09,0,0,0-.23,1.81,5.48,5.48,0,0,0,.23,1.69,2,2,0,0,0,.7,1,1.87,1.87,0,0,0,1.15.34,2.37,2.37,0,0,0,1.27-.32,1.82,1.82,0,0,0,.73-.92h3.6a5.24,5.24,0,0,1-2,3A5.78,5.78,0,0,1,903.67,249.27Z" transform="translate(-336 0)"/><path class="cls-5" d="M914.59,243.12v6H911V237.76h3.3v1.36a5.38,5.38,0,0,1,1.49-1.15,4,4,0,0,1,1.88-.43,3.68,3.68,0,0,1,2.75,1.1,4.34,4.34,0,0,1,1.06,3.16v7.28h-3.6V243a2.92,2.92,0,0,0-.39-1.65,1.38,1.38,0,0,0-1.21-.56,1.55,1.55,0,0,0-.83.23,1.62,1.62,0,0,0-.62.73A3.45,3.45,0,0,0,914.59,243.12Z" transform="translate(-336 0)"/><rect class="cls-6" x="97" y="302" width="67" height="23"/><path class="cls-5" d="M451.82,316.53a4.08,4.08,0,0,1-1.49,3.34,6.45,6.45,0,0,1-4.13,1.21H440V306H446a6.57,6.57,0,0,1,3.93,1,3.52,3.52,0,0,1,1.44,3,3.16,3.16,0,0,1-.51,1.77,4.19,4.19,0,0,1-1.45,1.34,4.24,4.24,0,0,1,1.78,1.33A3.36,3.36,0,0,1,451.82,316.53Zm-6.12-7.43h-2.15v2.61h2.15a2.43,2.43,0,0,0,1.46-.36,1.14,1.14,0,0,0,.47-1,1.11,1.11,0,0,0-.47-.94A2.51,2.51,0,0,0,445.7,309.1Zm.18,5.75h-2.33v3.09h2.33a2.68,2.68,0,0,0,1.66-.42,1.39,1.39,0,0,0,.53-1.14,1.36,1.36,0,0,0-.53-1.11A2.68,2.68,0,0,0,445.88,314.85Z" transform="translate(-336 0)"/><path class="cls-5" d="M457.1,315.86v5.22h-3.6V309.76h3.31v2a4.24,4.24,0,0,1,1.88-1.53,6.2,6.2,0,0,1,2.58-.55v3.75a10.25,10.25,0,0,0-2.2,0,2.16,2.16,0,0,0-1.45.65A2.6,2.6,0,0,0,457.1,315.86Z" transform="translate(-336 0)"/><path class="cls-5" d="M467.67,321.27a6.2,6.2,0,0,1-3.07-.74,5.25,5.25,0,0,1-2-2.06,6.36,6.36,0,0,1-.72-3.07,6,6,0,0,1,.74-3,5.51,5.51,0,0,1,2.07-2.08,5.91,5.91,0,0,1,3-.76,6,6,0,0,1,2.55.53,5.29,5.29,0,0,1,1.9,1.46,5.49,5.49,0,0,1,1.09,2.17,6.06,6.06,0,0,1,.06,2.62H464v-2.25h5.39a1.89,1.89,0,0,0-.53-1.37,1.77,1.77,0,0,0-1.3-.5,1.85,1.85,0,0,0-1.15.34,2.14,2.14,0,0,0-.68,1.07,5.78,5.78,0,0,0-.23,1.81,5.19,5.19,0,0,0,.23,1.69,2,2,0,0,0,.69,1,1.9,1.9,0,0,0,1.16.34,2.31,2.31,0,0,0,1.26-.32,1.79,1.79,0,0,0,.74-.92h3.6a5.24,5.24,0,0,1-2,3A5.78,5.78,0,0,1,467.67,321.27Z" transform="translate(-336 0)"/><path class="cls-5" d="M485,317.23a3.6,3.6,0,0,1-1.35,3,7.47,7.47,0,0,1-7.85,0,4.24,4.24,0,0,1-1.56-3.08h3.45a1.35,1.35,0,0,0,.59,1.14,2.57,2.57,0,0,0,1.52.42,3.26,3.26,0,0,0,1.08-.17.62.62,0,0,0,.48-.61.64.64,0,0,0-.29-.57,2.29,2.29,0,0,0-.87-.3l-2.23-.4a4.53,4.53,0,0,1-2.36-1.11,2.91,2.91,0,0,1-.88-2.21,3.27,3.27,0,0,1,.59-1.94A3.82,3.82,0,0,1,477,310a6.25,6.25,0,0,1,2.56-.48,6.56,6.56,0,0,1,2.63.5,4.44,4.44,0,0,1,1.82,1.42,4.26,4.26,0,0,1,.79,2.19h-3.46a1.47,1.47,0,0,0-.54-1.06,1.9,1.9,0,0,0-1.22-.39,2.37,2.37,0,0,0-1,.18.57.57,0,0,0-.38.55.54.54,0,0,0,.27.51,2.91,2.91,0,0,0,.8.25l2.4.44a4.84,4.84,0,0,1,2.49,1.09A2.6,2.6,0,0,1,485,317.23Z" transform="translate(-336 0)"/><path class="cls-5" d="M494.05,317.54v3.14a4.34,4.34,0,0,1-1.2.47,6.25,6.25,0,0,1-1.36.14,4.43,4.43,0,0,1-2.17-.49,3.26,3.26,0,0,1-1.39-1.41,4.71,4.71,0,0,1-.48-2.21v-4.29h-2.11v-3.13h2.11v-3.33H491v3.33h3.1v3.13H491v3.45a1.73,1.73,0,0,0,.36,1.21,1.42,1.42,0,0,0,1.1.39,3.41,3.41,0,0,0,.85-.1A2.24,2.24,0,0,0,494.05,317.54Z" transform="translate(-336 0)"/><rect class="cls-6" x="319" y="465" width="83" height="23"/><path class="cls-5" d="M671.61,484.08l-6-9.43v9.43H662V469h4.27l5.58,8.73V469h3.64v15.11Z" transform="translate(-336 0)"/><path class="cls-5" d="M684.72,484.08V483a3.57,3.57,0,0,1-1.37,1,5,5,0,0,1-1.87.32,4.09,4.09,0,0,1-2.85-1,3.28,3.28,0,0,1-1.09-2.58,2.85,2.85,0,0,1,1.31-2.53,6.6,6.6,0,0,1,3.72-.88c.31,0,.61,0,.89,0s.54.06.78.1v-.55a1.54,1.54,0,0,0-.41-1.14,1.65,1.65,0,0,0-1.17-.39,1.69,1.69,0,0,0-1.17.39,1.86,1.86,0,0,0-.54,1.14h-3.24a4.69,4.69,0,0,1,.76-2.3,4.28,4.28,0,0,1,1.74-1.52,5.44,5.44,0,0,1,2.47-.54,5.17,5.17,0,0,1,3.64,1.2,4.33,4.33,0,0,1,1.3,3.35v7Zm-3.79-3.45a1.06,1.06,0,0,0,.37.86,1.52,1.52,0,0,0,1,.31,2.21,2.21,0,0,0,1.41-.4,1.3,1.3,0,0,0,.51-1.09v-.72c-.27,0-.52-.09-.74-.11s-.46,0-.7,0a2.73,2.73,0,0,0-1.38.29A1,1,0,0,0,680.93,480.63Z" transform="translate(-336 0)"/><path class="cls-5" d="M693.47,478.12v6h-3.59V472.76h3.3v1.36a5.34,5.34,0,0,1,1.48-1.15,4.05,4.05,0,0,1,1.89-.43,3.65,3.65,0,0,1,2.74,1.1,4.35,4.35,0,0,1,1.07,3.16v7.28h-3.6V478a2.92,2.92,0,0,0-.39-1.65,1.38,1.38,0,0,0-1.21-.56,1.53,1.53,0,0,0-.83.23,1.56,1.56,0,0,0-.62.73A3.27,3.27,0,0,0,693.47,478.12Z" transform="translate(-336 0)"/><path class="cls-5" d="M710.1,480.54v3.14a4.34,4.34,0,0,1-1.2.47,6.34,6.34,0,0,1-1.37.14,4.49,4.49,0,0,1-2.17-.49,3.32,3.32,0,0,1-1.39-1.41,4.71,4.71,0,0,1-.48-2.21v-4.29h-2.1v-3.13h2.1v-3.33h3.6v3.33h3.09v3.13h-3.09v3.45a1.73,1.73,0,0,0,.36,1.21,1.41,1.41,0,0,0,1.09.39,3.36,3.36,0,0,0,.85-.1A2.3,2.3,0,0,0,710.1,480.54Z" transform="translate(-336 0)"/><path class="cls-5" d="M716.69,484.27a6.2,6.2,0,0,1-3.07-.74,5.25,5.25,0,0,1-2-2.06,6.36,6.36,0,0,1-.72-3.07,6.06,6.06,0,0,1,.74-3,5.51,5.51,0,0,1,2.07-2.08,5.92,5.92,0,0,1,3-.76,6,6,0,0,1,2.54.53,5.41,5.41,0,0,1,1.91,1.46,5.61,5.61,0,0,1,1.08,2.17,6.06,6.06,0,0,1,.06,2.62H713v-2.25h5.39a1.89,1.89,0,0,0-.53-1.37,1.77,1.77,0,0,0-1.3-.5,1.87,1.87,0,0,0-1.15.34,2.14,2.14,0,0,0-.68,1.07,5.78,5.78,0,0,0-.23,1.81,5.19,5.19,0,0,0,.23,1.69,2,2,0,0,0,.69,1,1.9,1.9,0,0,0,1.16.34,2.31,2.31,0,0,0,1.26-.32,1.79,1.79,0,0,0,.74-.92h3.6a5.24,5.24,0,0,1-2,3A5.78,5.78,0,0,1,716.69,484.27Z" transform="translate(-336 0)"/><path class="cls-5" d="M734.05,480.23a3.6,3.6,0,0,1-1.35,3,7.47,7.47,0,0,1-7.85,0,4.27,4.27,0,0,1-1.56-3.08h3.45a1.35,1.35,0,0,0,.59,1.14,2.57,2.57,0,0,0,1.52.42,3.26,3.26,0,0,0,1.08-.17.62.62,0,0,0,.48-.61.64.64,0,0,0-.29-.57,2.29,2.29,0,0,0-.87-.3l-2.23-.4a4.53,4.53,0,0,1-2.36-1.11,2.91,2.91,0,0,1-.88-2.21,3.27,3.27,0,0,1,.59-1.94A3.82,3.82,0,0,1,726,473a6.25,6.25,0,0,1,2.56-.48,6.56,6.56,0,0,1,2.63.5,4.44,4.44,0,0,1,1.82,1.42,4.26,4.26,0,0,1,.79,2.19h-3.46a1.47,1.47,0,0,0-.54-1.06,1.9,1.9,0,0,0-1.22-.39,2.37,2.37,0,0,0-1,.18.57.57,0,0,0-.38.55.54.54,0,0,0,.27.51,2.91,2.91,0,0,0,.8.25l2.4.44a4.84,4.84,0,0,1,2.49,1.09A2.6,2.6,0,0,1,734.05,480.23Z" transform="translate(-336 0)"/><rect class="cls-6" x="826" y="419" width="65" height="23"/><path class="cls-5" d="M1174.84,438.08H1169V423h5.89a8.62,8.62,0,0,1,4.15.94,6.74,6.74,0,0,1,2.69,2.63,8.44,8.44,0,0,1,0,7.82,6.93,6.93,0,0,1-2.72,2.73A8.24,8.24,0,0,1,1174.84,438.08Zm-1.91-11.68v8.25h1.68a4.63,4.63,0,0,0,2.2-.47,2.88,2.88,0,0,0,1.31-1.4,5.69,5.69,0,0,0,.43-2.34,4.93,4.93,0,0,0-.45-2.24,2.91,2.91,0,0,0-1.31-1.35,4.73,4.73,0,0,0-2.18-.45Z" transform="translate(-336 0)"/><path class="cls-5" d="M1188.48,424.12a1.93,1.93,0,0,1-.64,1.47,2.71,2.71,0,0,1-3.35,0,2,2,0,0,1,0-2.95,2.71,2.71,0,0,1,3.35,0A1.94,1.94,0,0,1,1188.48,424.12Zm-.48,14h-3.6V426.76h3.6Z" transform="translate(-336 0)"/><path class="cls-5" d="M1193.93,426.76v10.75a6.11,6.11,0,0,1-.56,2.8,3.56,3.56,0,0,1-1.51,1.56,4.82,4.82,0,0,1-2.18.48c-.28,0-.56,0-.84,0a3.83,3.83,0,0,1-.85-.19v-3.39a1.58,1.58,0,0,0,.55.21,3.63,3.63,0,0,0,.67.06,1,1,0,0,0,.8-.34,1.91,1.91,0,0,0,.32-1.26V426.76Zm.48-2.64a1.9,1.9,0,0,1-.64,1.47,2.42,2.42,0,0,1-1.67.58,2.45,2.45,0,0,1-1.68-.58,2,2,0,0,1,0-2.95,2.45,2.45,0,0,1,1.68-.58,2.42,2.42,0,0,1,1.67.58A1.9,1.9,0,0,1,1194.41,424.12Z" transform="translate(-336 0)"/><path class="cls-5" d="M1201.48,438.29a5.77,5.77,0,0,1-2.33-.46,5.61,5.61,0,0,1-1.87-1.26,5.87,5.87,0,0,1,0-8.31,5.61,5.61,0,0,1,1.87-1.26,6.16,6.16,0,0,1,4.67,0,5.61,5.61,0,0,1,1.87,1.26,5.79,5.79,0,0,1,1.25,1.87,5.91,5.91,0,0,1,0,4.57,5.79,5.79,0,0,1-1.25,1.87,5.61,5.61,0,0,1-1.87,1.26A5.82,5.82,0,0,1,1201.48,438.29Zm0-3.22a2,2,0,0,0,1.07-.3,2.15,2.15,0,0,0,.8-.88,3.21,3.21,0,0,0,.3-1.47,3.28,3.28,0,0,0-.3-1.48,2.1,2.1,0,0,0-2.92-.87,2,2,0,0,0-.81.87,3.28,3.28,0,0,0-.3,1.48,3.21,3.21,0,0,0,.3,1.47,2.11,2.11,0,0,0,1.86,1.18Z" transform="translate(-336 0)"/><path class="cls-5" d="M1212.64,432.12v6H1209V426.76h3.3v1.36a5.38,5.38,0,0,1,1.49-1.15,4,4,0,0,1,1.88-.43,3.68,3.68,0,0,1,2.75,1.1,4.39,4.39,0,0,1,1.06,3.16v7.28h-3.6V432a2.92,2.92,0,0,0-.39-1.65,1.38,1.38,0,0,0-1.21-.56,1.55,1.55,0,0,0-1.45,1A3.28,3.28,0,0,0,1212.64,432.12Z" transform="translate(-336 0)"/><rect class="cls-6" x="815" y="595" width="58" height="23"/><path class="cls-5" d="M1168.28,614.08H1158V599h4v11.51h6.35Z" transform="translate(-336 0)"/><path class="cls-5" d="M1180.34,602.76,1175,618.14H1171l1.58-4.19-4.42-11.19h3.91l2.44,7,2.19-7Z" transform="translate(-336 0)"/><path class="cls-5" d="M1186.19,614.29a5.9,5.9,0,0,1-4.21-1.72,6,6,0,0,1-1.25-1.87,6,6,0,0,1,0-4.57,6,6,0,0,1,1.25-1.87,5.76,5.76,0,0,1,1.88-1.26,5.94,5.94,0,0,1,2.33-.46,6,6,0,0,1,2.34.46,5.71,5.71,0,0,1,1.87,1.26,6,6,0,0,1,1.25,1.87,5.91,5.91,0,0,1,0,4.57,6,6,0,0,1-1.25,1.87,5.71,5.71,0,0,1-1.87,1.26A5.85,5.85,0,0,1,1186.19,614.29Zm0-3.22a2,2,0,0,0,1.06-.3,2.08,2.08,0,0,0,.8-.88,3.08,3.08,0,0,0,.31-1.47,3.15,3.15,0,0,0-.31-1.48,2,2,0,0,0-1.86-1.15,2.12,2.12,0,0,0-1,.28,2,2,0,0,0-.81.87,3.28,3.28,0,0,0-.31,1.48,3.2,3.2,0,0,0,.31,1.47,2.11,2.11,0,0,0,1.86,1.18Z" transform="translate(-336 0)"/><path class="cls-5" d="M1197.34,608.12v6h-3.59V602.76h3.3v1.36a5.34,5.34,0,0,1,1.48-1.15,4.05,4.05,0,0,1,1.89-.43,3.65,3.65,0,0,1,2.74,1.1,4.35,4.35,0,0,1,1.07,3.16v7.28h-3.6V608a2.92,2.92,0,0,0-.39-1.65,1.35,1.35,0,0,0-1.21-.56,1.53,1.53,0,0,0-.83.23,1.56,1.56,0,0,0-.62.73A3.27,3.27,0,0,0,1197.34,608.12Z" transform="translate(-336 0)"/><rect class="cls-6" x="991" y="832" width="59" height="23"/><path class="cls-5" d="M1343.61,851.08l-6-9.43v9.43H1334V836h4.27l5.58,8.73V836h3.64v15.11Z" transform="translate(-336 0)"/><path class="cls-5" d="M1354.17,837.12a1.9,1.9,0,0,1-.64,1.47,2.69,2.69,0,0,1-3.34,0,2,2,0,0,1,0-3,2.69,2.69,0,0,1,3.34,0A1.9,1.9,0,0,1,1354.17,837.12Zm-.48,14h-3.6V839.76h3.6Z" transform="translate(-336 0)"/><path class="cls-5" d="M1361,851.29a5.74,5.74,0,0,1-3-.75,5.27,5.27,0,0,1-2-2.07,6.2,6.2,0,0,1-.73-3.05,6,6,0,0,1,.75-3,5.55,5.55,0,0,1,5-2.87,5.88,5.88,0,0,1,2.8.67,5.41,5.41,0,0,1,2,1.84,5.89,5.89,0,0,1,.93,2.76H1363a2.22,2.22,0,0,0-.56-1.48,1.76,1.76,0,0,0-1.34-.54,1.8,1.8,0,0,0-1.07.31,2,2,0,0,0-.68.9,3.69,3.69,0,0,0-.24,1.42,3.89,3.89,0,0,0,.23,1.44,1.81,1.81,0,0,0,.68.9,1.83,1.83,0,0,0,1.08.31,1.72,1.72,0,0,0,1.34-.54,2.37,2.37,0,0,0,.56-1.5h3.83a6.11,6.11,0,0,1-.91,2.8,5.17,5.17,0,0,1-2,1.82A6.24,6.24,0,0,1,1361,851.29Z" transform="translate(-336 0)"/><path class="cls-5" d="M1373.53,851.27a6.19,6.19,0,0,1-3.06-.74,5.12,5.12,0,0,1-2-2.06,6.36,6.36,0,0,1-.73-3.07,6,6,0,0,1,.75-3,5.56,5.56,0,0,1,2.06-2.08,6.35,6.35,0,0,1,5.55-.23,5.29,5.29,0,0,1,1.9,1.46,5.63,5.63,0,0,1,1.09,2.17,6.06,6.06,0,0,1,.06,2.62h-9.24v-2.25h5.39a1.89,1.89,0,0,0-.53-1.37,1.77,1.77,0,0,0-1.3-.5,1.83,1.83,0,0,0-1.15.34,2.14,2.14,0,0,0-.68,1.07,5.78,5.78,0,0,0-.23,1.81,5.19,5.19,0,0,0,.23,1.69,1.94,1.94,0,0,0,.69,1,1.9,1.9,0,0,0,1.16.34,2.33,2.33,0,0,0,1.26-.32,1.84,1.84,0,0,0,.74-.92h3.6a5.29,5.29,0,0,1-2,3A5.79,5.79,0,0,1,1373.53,851.27Z" transform="translate(-336 0)"/><rect class="cls-6" x="829" y="933" width="105" height="23"/><path class="cls-5" d="M1178.79,952.08l-3.24-8.71v8.71H1172V937h4.69l3.81,10.25,3.79-10.25h4.69v15.11h-3.6v-8.82l-3.26,8.82Z" transform="translate(-336 0)"/><path class="cls-5" d="M1198.21,952.08V951a3.61,3.61,0,0,1-1.36,1,5,5,0,0,1-1.88.32,4.09,4.09,0,0,1-2.85-1,3.31,3.31,0,0,1-1.08-2.58,2.84,2.84,0,0,1,1.3-2.53,6.61,6.61,0,0,1,3.73-.88c.31,0,.6,0,.88,0l.78.1v-.55a1.54,1.54,0,0,0-.41-1.14,1.62,1.62,0,0,0-1.17-.39,1.69,1.69,0,0,0-1.17.39,1.91,1.91,0,0,0-.53,1.14h-3.24a4.79,4.79,0,0,1,.75-2.3,4.42,4.42,0,0,1,1.74-1.52,5.47,5.47,0,0,1,2.47-.54,5.22,5.22,0,0,1,3.64,1.2,4.33,4.33,0,0,1,1.31,3.35v7Zm-3.78-3.45a1.09,1.09,0,0,0,.36.86,1.53,1.53,0,0,0,1,.31,2.17,2.17,0,0,0,1.41-.4,1.3,1.3,0,0,0,.51-1.09v-.72c-.27-.05-.51-.09-.74-.11s-.45,0-.69,0a2.77,2.77,0,0,0-1.39.29A1,1,0,0,0,1194.43,948.63Z" transform="translate(-336 0)"/><path class="cls-5" d="M1207,946.86v5.22h-3.6V940.76h3.3v2a4.33,4.33,0,0,1,1.89-1.53,6.19,6.19,0,0,1,2.57-.55v3.75a10.25,10.25,0,0,0-2.2,0,2.21,2.21,0,0,0-1.45.65A2.66,2.66,0,0,0,1207,946.86Z" transform="translate(-336 0)"/><path class="cls-5" d="M1222.56,948.23a3.62,3.62,0,0,1-1.35,3,7.45,7.45,0,0,1-7.84,0,4.24,4.24,0,0,1-1.56-3.08h3.45a1.32,1.32,0,0,0,.59,1.13,2.48,2.48,0,0,0,1.51.43,3.33,3.33,0,0,0,1.09-.17.62.62,0,0,0,.47-.61.64.64,0,0,0-.28-.57,2.29,2.29,0,0,0-.88-.3l-2.23-.4a4.46,4.46,0,0,1-2.35-1.11,2.91,2.91,0,0,1-.89-2.21,3.32,3.32,0,0,1,.59-1.94,3.82,3.82,0,0,1,1.67-1.31,6.32,6.32,0,0,1,2.56-.48,6.53,6.53,0,0,1,2.63.5,4.31,4.31,0,0,1,1.82,1.42,4.17,4.17,0,0,1,.79,2.19h-3.45a1.48,1.48,0,0,0-.55-1.06,1.88,1.88,0,0,0-1.22-.39,2.37,2.37,0,0,0-1,.18.58.58,0,0,0-.38.55.53.53,0,0,0,.28.51,2.8,2.8,0,0,0,.8.25l2.39.44a4.87,4.87,0,0,1,2.5,1.09A2.59,2.59,0,0,1,1222.56,948.23Z" transform="translate(-336 0)"/><path class="cls-5" d="M1229.42,952.27a6.19,6.19,0,0,1-3.06-.74,5.12,5.12,0,0,1-2-2.06,6.25,6.25,0,0,1-.73-3.07,6,6,0,0,1,.75-3,5.49,5.49,0,0,1,2.06-2.08,6.35,6.35,0,0,1,5.55-.23,5.38,5.38,0,0,1,1.9,1.46,5.61,5.61,0,0,1,1.08,2.17,6.05,6.05,0,0,1,.07,2.62h-9.24v-2.25h5.39a1.93,1.93,0,0,0-.53-1.37,1.79,1.79,0,0,0-1.3-.5,1.83,1.83,0,0,0-1.15.34,2.14,2.14,0,0,0-.68,1.07,5.75,5.75,0,0,0-.24,1.81,5.17,5.17,0,0,0,.24,1.69,1.94,1.94,0,0,0,.69,1,1.88,1.88,0,0,0,1.16.34,2.36,2.36,0,0,0,1.26-.32,1.84,1.84,0,0,0,.74-.92h3.59a5.27,5.27,0,0,1-2,3A5.81,5.81,0,0,1,1229.42,952.27Z" transform="translate(-336 0)"/><path class="cls-5" d="M1240.83,938.12a1.91,1.91,0,0,1-.65,1.47,2.69,2.69,0,0,1-3.34,0,2,2,0,0,1,0-3,2.69,2.69,0,0,1,3.34,0A1.91,1.91,0,0,1,1240.83,938.12Zm-.49,14h-3.6V940.76h3.6Z" transform="translate(-336 0)"/><path class="cls-5" d="M1246.34,952.08h-3.64V937h3.64Z" transform="translate(-336 0)"/><path class="cls-5" d="M1252.34,952.08h-3.64V937h3.64Z" transform="translate(-336 0)"/><path class="cls-5" d="M1259.81,952.27a6.13,6.13,0,0,1-3.06-.74,5.12,5.12,0,0,1-2-2.06,6.25,6.25,0,0,1-.73-3.07,6,6,0,0,1,.75-3,5.42,5.42,0,0,1,2.06-2.08,6.32,6.32,0,0,1,5.54-.23,5.33,5.33,0,0,1,1.91,1.46,5.61,5.61,0,0,1,1.08,2.17,6.06,6.06,0,0,1,.06,2.62h-9.23v-2.25h5.38a1.93,1.93,0,0,0-.52-1.37,1.8,1.8,0,0,0-1.31-.5,1.82,1.82,0,0,0-1.14.34,2.15,2.15,0,0,0-.69,1.07,6.09,6.09,0,0,0-.23,1.81,5.48,5.48,0,0,0,.23,1.69,2,2,0,0,0,.7,1,1.87,1.87,0,0,0,1.15.34,2.37,2.37,0,0,0,1.27-.32,1.82,1.82,0,0,0,.73-.92h3.6a5.24,5.24,0,0,1-2,3A5.78,5.78,0,0,1,1259.81,952.27Z" transform="translate(-336 0)"/><rect class="cls-6" x="692" y="832" width="130" height="23"/><path class="cls-5" d="M1041.79,851.08l-3.24-8.71v8.71H1035V836h4.69l3.81,10.25,3.79-10.25h4.69v15.11h-3.6v-8.82l-3.26,8.82Z" transform="translate(-336 0)"/><path class="cls-5" d="M1059.78,851.29a5.9,5.9,0,0,1-4.21-1.72,6,6,0,0,1-1.25-1.87,6,6,0,0,1,0-4.57,6,6,0,0,1,1.25-1.87,5.76,5.76,0,0,1,1.88-1.26,5.94,5.94,0,0,1,2.33-.46,6,6,0,0,1,2.34.46,5.71,5.71,0,0,1,1.87,1.26,6,6,0,0,1,1.25,1.87,5.91,5.91,0,0,1,0,4.57,6,6,0,0,1-1.25,1.87,5.71,5.71,0,0,1-1.87,1.26A5.85,5.85,0,0,1,1059.78,851.29Zm0-3.22a2,2,0,0,0,1.07-.3,2.13,2.13,0,0,0,.79-.88,3.08,3.08,0,0,0,.31-1.47,3.15,3.15,0,0,0-.31-1.48,2.09,2.09,0,0,0-2.91-.87,2,2,0,0,0-.81.87,3.28,3.28,0,0,0-.3,1.48,3.21,3.21,0,0,0,.3,1.47,2.11,2.11,0,0,0,1.86,1.18Z" transform="translate(-336 0)"/><path class="cls-5" d="M1070.94,845.12v6h-3.6V839.76h3.3v1.36a5.34,5.34,0,0,1,1.48-1.15,4.05,4.05,0,0,1,1.89-.43,3.65,3.65,0,0,1,2.74,1.1,4.35,4.35,0,0,1,1.07,3.16v7.28h-3.6V845a2.92,2.92,0,0,0-.39-1.65,1.35,1.35,0,0,0-1.21-.56,1.53,1.53,0,0,0-.83.23,1.56,1.56,0,0,0-.62.73A3.28,3.28,0,0,0,1070.94,845.12Z" transform="translate(-336 0)"/><path class="cls-5" d="M1087.56,847.54v3.14a4.34,4.34,0,0,1-1.2.47,6.34,6.34,0,0,1-1.37.14,4.49,4.49,0,0,1-2.17-.49,3.24,3.24,0,0,1-1.38-1.41,4.6,4.6,0,0,1-.49-2.21v-4.29h-2.1v-3.13h2.1v-3.33h3.6v3.33h3.09v3.13h-3.09v3.45a1.73,1.73,0,0,0,.36,1.21,1.41,1.41,0,0,0,1.09.39,3.36,3.36,0,0,0,.85-.1A2.3,2.3,0,0,0,1087.56,847.54Z" transform="translate(-336 0)"/><path class="cls-5" d="M1101,845.42a6.8,6.8,0,0,1-.63,3,5.3,5.3,0,0,1-1.75,2.12,4.57,4.57,0,0,1-2.67.79,4.24,4.24,0,0,1-1.64-.32,4.84,4.84,0,0,1-1.43-.94v5.11h-3.6V839.76h3.31V841a4.94,4.94,0,0,1,1.53-1.12,4.44,4.44,0,0,1,1.83-.38,4.57,4.57,0,0,1,2.67.79,5.33,5.33,0,0,1,1.75,2.13A6.86,6.86,0,0,1,1101,845.42Zm-3.74,0a2.62,2.62,0,0,0-.68-2,2,2,0,0,0-2.54-.36,2.13,2.13,0,0,0-.81.87,3.23,3.23,0,0,0-.31,1.49,3.06,3.06,0,0,0,.32,1.48,2,2,0,0,0,.81.85,2.06,2.06,0,0,0,1,.28,2.09,2.09,0,0,0,1.49-.65A2.61,2.61,0,0,0,1097.22,845.42Z" transform="translate(-336 0)"/><path class="cls-5" d="M1107.72,851.27a6.16,6.16,0,0,1-3.06-.74,5.12,5.12,0,0,1-2-2.06,6.25,6.25,0,0,1-.73-3.07,6,6,0,0,1,.75-3,5.49,5.49,0,0,1,2.06-2.08,6.35,6.35,0,0,1,5.55-.23,5.38,5.38,0,0,1,1.9,1.46,5.61,5.61,0,0,1,1.08,2.17,6.21,6.21,0,0,1,.07,2.62h-9.24v-2.25h5.39a1.93,1.93,0,0,0-.53-1.37,1.8,1.8,0,0,0-1.31-.5,1.82,1.82,0,0,0-1.14.34,2.22,2.22,0,0,0-.69,1.07,6.09,6.09,0,0,0-.23,1.81,5.48,5.48,0,0,0,.23,1.69,2,2,0,0,0,.7,1,1.88,1.88,0,0,0,1.16.34,2.36,2.36,0,0,0,1.26-.32,1.77,1.77,0,0,0,.73-.92h3.6a5.27,5.27,0,0,1-2,3A5.81,5.81,0,0,1,1107.72,851.27Z" transform="translate(-336 0)"/><path class="cls-5" d="M1118.68,851.08H1115V836h3.64Z" transform="translate(-336 0)"/><path class="cls-5" d="M1124.68,851.08H1121V836h3.64Z" transform="translate(-336 0)"/><path class="cls-5" d="M1131.12,837.12a1.9,1.9,0,0,1-.64,1.47,2.71,2.71,0,0,1-3.35,0,2,2,0,0,1,0-3,2.71,2.71,0,0,1,3.35,0A1.9,1.9,0,0,1,1131.12,837.12Zm-.48,14H1127V839.76h3.6Z" transform="translate(-336 0)"/><path class="cls-5" d="M1138.11,851.27a6.2,6.2,0,0,1-3.07-.74,5.25,5.25,0,0,1-2-2.06,6.36,6.36,0,0,1-.72-3.07,6.06,6.06,0,0,1,.74-3,5.51,5.51,0,0,1,2.07-2.08,5.91,5.91,0,0,1,3-.76,6,6,0,0,1,2.55.53,5.41,5.41,0,0,1,1.91,1.46,5.61,5.61,0,0,1,1.08,2.17,6.06,6.06,0,0,1,.06,2.62h-9.24v-2.25h5.39a1.89,1.89,0,0,0-.53-1.37,1.77,1.77,0,0,0-1.3-.5,1.87,1.87,0,0,0-1.15.34,2.14,2.14,0,0,0-.68,1.07,5.78,5.78,0,0,0-.23,1.81,5.19,5.19,0,0,0,.23,1.69,2,2,0,0,0,.69,1,1.9,1.9,0,0,0,1.16.34,2.31,2.31,0,0,0,1.26-.32,1.79,1.79,0,0,0,.74-.92h3.6a5.24,5.24,0,0,1-2,3A5.78,5.78,0,0,1,1138.11,851.27Z" transform="translate(-336 0)"/><path class="cls-5" d="M1149,845.86v5.22h-3.6V839.76h3.3v2a4.27,4.27,0,0,1,1.89-1.53,6.19,6.19,0,0,1,2.57-.55v3.75a10.25,10.25,0,0,0-2.2,0,2.21,2.21,0,0,0-1.45.65A2.66,2.66,0,0,0,1149,845.86Z" transform="translate(-336 0)"/><rect class="cls-6" x="525" y="887" width="104" height="23"/><path class="cls-5" d="M875.4,906.08h-4V894.57h-4.63V891H880v3.6H875.4Z" transform="translate(-336 0)"/><path class="cls-5" d="M885.46,906.29a5.85,5.85,0,0,1-2.34-.46,5.71,5.71,0,0,1-1.87-1.26A6,6,0,0,1,880,902.7a6,6,0,0,1,0-4.57,6,6,0,0,1,1.25-1.87,5.71,5.71,0,0,1,1.87-1.26,6,6,0,0,1,2.34-.46,5.94,5.94,0,0,1,2.33.46,5.76,5.76,0,0,1,1.88,1.26,6,6,0,0,1,1.25,1.87,6,6,0,0,1,0,4.57,6,6,0,0,1-1.25,1.87,5.9,5.9,0,0,1-4.21,1.72Zm0-3.22a2,2,0,0,0,1.06-.3,2.08,2.08,0,0,0,.8-.88,3.2,3.2,0,0,0,.31-1.47,3.28,3.28,0,0,0-.31-1.48,2.09,2.09,0,0,0-2.91-.87,2,2,0,0,0-.81.87,3.15,3.15,0,0,0-.31,1.48,3.08,3.08,0,0,0,.31,1.47,2,2,0,0,0,.81.88A2,2,0,0,0,885.46,903.07Z" transform="translate(-336 0)"/><path class="cls-5" d="M899.73,901.22v-6.46h3.6v11.32H900v-1.22a3.44,3.44,0,0,1-1.31,1,4.42,4.42,0,0,1-1.85.4,4.27,4.27,0,0,1-2-.48,3.37,3.37,0,0,1-1.42-1.45,5.29,5.29,0,0,1-.51-2.47v-7.13h3.6v6.46a2,2,0,0,0,.43,1.39,1.57,1.57,0,0,0,1.19.46,1.51,1.51,0,0,0,.72-.2,1.65,1.65,0,0,0,.62-.61A2,2,0,0,0,899.73,901.22Z" transform="translate(-336 0)"/><path class="cls-5" d="M909.32,906.08h-3.64V891h3.64Z" transform="translate(-336 0)"/><path class="cls-5" d="M916.88,906.29a5.82,5.82,0,0,1-2.34-.46,5.71,5.71,0,0,1-1.87-1.26,5.79,5.79,0,0,1-1.25-1.87,5.91,5.91,0,0,1,0-4.57,5.79,5.79,0,0,1,1.25-1.87,5.71,5.71,0,0,1,1.87-1.26,6.16,6.16,0,0,1,4.67,0,5.61,5.61,0,0,1,1.87,1.26,5.87,5.87,0,0,1,0,8.31,5.61,5.61,0,0,1-1.87,1.26A5.77,5.77,0,0,1,916.88,906.29Zm0-3.22a2,2,0,0,0,1.06-.3,2.08,2.08,0,0,0,.8-.88,3.21,3.21,0,0,0,.3-1.47,3.28,3.28,0,0,0-.3-1.48,2.06,2.06,0,0,0-.8-.87,2.1,2.1,0,0,0-1.06-.28,2.06,2.06,0,0,0-1.87,1.15,3.28,3.28,0,0,0-.3,1.48,3.21,3.21,0,0,0,.3,1.47,2.17,2.17,0,0,0,.81.88A2.05,2.05,0,0,0,916.88,903.07Z" transform="translate(-336 0)"/><path class="cls-5" d="M931.14,901.22v-6.46h3.6v11.32h-3.3v-1.22a3.4,3.4,0,0,1-1.32,1,4.34,4.34,0,0,1-1.84.4,4.27,4.27,0,0,1-2-.48,3.37,3.37,0,0,1-1.42-1.45,5.29,5.29,0,0,1-.51-2.47v-7.13h3.59v6.46a2,2,0,0,0,.44,1.39,1.62,1.62,0,0,0,1.91.26,1.72,1.72,0,0,0,.62-.61A2,2,0,0,0,931.14,901.22Z" transform="translate(-336 0)"/><path class="cls-5" d="M947.14,902.23a3.62,3.62,0,0,1-1.35,3,7.47,7.47,0,0,1-7.85,0,4.31,4.31,0,0,1-1.56-3.08h3.45a1.32,1.32,0,0,0,.59,1.13,2.51,2.51,0,0,0,1.52.43,3.22,3.22,0,0,0,1.08-.17.62.62,0,0,0,.48-.61.65.65,0,0,0-.29-.57,2.29,2.29,0,0,0-.87-.3l-2.23-.4a4.53,4.53,0,0,1-2.36-1.11,2.91,2.91,0,0,1-.88-2.21,3.25,3.25,0,0,1,.59-1.94,3.82,3.82,0,0,1,1.67-1.31,6.29,6.29,0,0,1,2.56-.48,6.56,6.56,0,0,1,2.63.5,4.37,4.37,0,0,1,1.82,1.42,4.26,4.26,0,0,1,.79,2.19h-3.45a1.51,1.51,0,0,0-.55-1.06,1.88,1.88,0,0,0-1.22-.39,2.37,2.37,0,0,0-1,.18.58.58,0,0,0-.38.55.54.54,0,0,0,.27.51,2.91,2.91,0,0,0,.8.25l2.4.44a4.87,4.87,0,0,1,2.5,1.09A2.63,2.63,0,0,1,947.14,902.23Z" transform="translate(-336 0)"/><path class="cls-5" d="M954,906.27a6.13,6.13,0,0,1-3.06-.74,5.21,5.21,0,0,1-2.05-2.06,6.36,6.36,0,0,1-.72-3.07,6,6,0,0,1,.75-3A5.42,5.42,0,0,1,951,895.3a5.92,5.92,0,0,1,3-.76,6,6,0,0,1,2.54.53,5.33,5.33,0,0,1,1.91,1.46,5.61,5.61,0,0,1,1.08,2.17,6.06,6.06,0,0,1,.06,2.62h-9.23v-2.25h5.38a1.93,1.93,0,0,0-.52-1.37,2,2,0,0,0-2.45-.16,2.15,2.15,0,0,0-.69,1.07,6.09,6.09,0,0,0-.23,1.81,5.48,5.48,0,0,0,.23,1.69,2,2,0,0,0,.7,1,1.85,1.85,0,0,0,1.15.34,2.37,2.37,0,0,0,1.27-.32,1.82,1.82,0,0,0,.73-.92h3.6a5.24,5.24,0,0,1-2,3A5.78,5.78,0,0,1,954,906.27Z" transform="translate(-336 0)"/><rect class="cls-6" x="376" y="677" width="108" height="23"/><path class="cls-5" d="M730.82,691.53a4.08,4.08,0,0,1-1.49,3.34,6.45,6.45,0,0,1-4.13,1.21H719V681H725a6.57,6.57,0,0,1,3.93,1,3.52,3.52,0,0,1,1.44,3,3.16,3.16,0,0,1-.51,1.77,4.19,4.19,0,0,1-1.45,1.34,4.24,4.24,0,0,1,1.78,1.33A3.36,3.36,0,0,1,730.82,691.53Zm-6.12-7.43h-2.15v2.61h2.15a2.51,2.51,0,0,0,1.46-.35,1.18,1.18,0,0,0,.47-1,1.11,1.11,0,0,0-.47-.94A2.51,2.51,0,0,0,724.7,684.1Zm.18,5.75h-2.33v3.09h2.33a2.68,2.68,0,0,0,1.66-.42,1.39,1.39,0,0,0,.53-1.14,1.36,1.36,0,0,0-.53-1.11A2.68,2.68,0,0,0,724.88,689.85Z" transform="translate(-336 0)"/><path class="cls-5" d="M737.7,696.29a5.85,5.85,0,0,1-2.34-.46,5.71,5.71,0,0,1-1.87-1.26,6,6,0,0,1-1.25-1.87,6,6,0,0,1,0-4.57,6,6,0,0,1,1.25-1.87,5.71,5.71,0,0,1,1.87-1.26,6.18,6.18,0,0,1,4.68,0,5.71,5.71,0,0,1,1.87,1.26,6,6,0,0,1,1.25,1.87,6,6,0,0,1,0,4.57,6,6,0,0,1-1.25,1.87,5.71,5.71,0,0,1-1.87,1.26A5.85,5.85,0,0,1,737.7,696.29Zm0-3.22a2,2,0,0,0,1.06-.3,2.08,2.08,0,0,0,.8-.88,3.08,3.08,0,0,0,.31-1.47,3.15,3.15,0,0,0-.31-1.48,2,2,0,0,0-1.86-1.15,2.12,2.12,0,0,0-1.05.28,2,2,0,0,0-.81.87,3.15,3.15,0,0,0-.31,1.48,3.08,3.08,0,0,0,.31,1.47,2.11,2.11,0,0,0,1.86,1.18Z" transform="translate(-336 0)"/><path class="cls-5" d="M748.85,690.86v5.22h-3.6V684.76h3.31v2a4.24,4.24,0,0,1,1.88-1.53,6.2,6.2,0,0,1,2.58-.55v3.75a10.25,10.25,0,0,0-2.2,0,2.19,2.19,0,0,0-1.45.65A2.6,2.6,0,0,0,748.85,690.86Z" transform="translate(-336 0)"/><path class="cls-5" d="M753.59,690.42a6.89,6.89,0,0,1,.63-3,5.2,5.2,0,0,1,1.77-2.12,4.55,4.55,0,0,1,2.65-.78,4.29,4.29,0,0,1,1.65.32,4.48,4.48,0,0,1,1.42.95V681h3.6v15.11H762v-1.29a5.24,5.24,0,0,1-1.54,1.11,4.29,4.29,0,0,1-1.83.39,4.56,4.56,0,0,1-2.65-.79,5.29,5.29,0,0,1-1.77-2.13A6.81,6.81,0,0,1,753.59,690.42Zm3.74,0a2.61,2.61,0,0,0,.68,2,2.08,2.08,0,0,0,1.49.66,2,2,0,0,0,1.06-.3,2.08,2.08,0,0,0,.8-.88,3.63,3.63,0,0,0,0-3,2.08,2.08,0,0,0-.81-.85,2.1,2.1,0,0,0-2.53.36A2.61,2.61,0,0,0,757.33,690.42Z" transform="translate(-336 0)"/><path class="cls-5" d="M772.78,696.27a6.16,6.16,0,0,1-3.06-.74,5.12,5.12,0,0,1-2-2.06,6.25,6.25,0,0,1-.73-3.07,6,6,0,0,1,.75-3,5.49,5.49,0,0,1,2.06-2.08,6.35,6.35,0,0,1,5.55-.23,5.38,5.38,0,0,1,1.9,1.46,5.61,5.61,0,0,1,1.08,2.17,6.05,6.05,0,0,1,.07,2.62h-9.24v-2.25h5.39a1.93,1.93,0,0,0-.53-1.37,1.8,1.8,0,0,0-1.31-.5,1.82,1.82,0,0,0-1.14.34,2.22,2.22,0,0,0-.69,1.07,6.09,6.09,0,0,0-.23,1.81,5.48,5.48,0,0,0,.23,1.69,2,2,0,0,0,.7,1,1.88,1.88,0,0,0,1.16.34,2.36,2.36,0,0,0,1.26-.32,1.84,1.84,0,0,0,.74-.92h3.59a5.27,5.27,0,0,1-1.95,3A5.81,5.81,0,0,1,772.78,696.27Z" transform="translate(-336 0)"/><path class="cls-5" d="M786.73,696.08V695a3.57,3.57,0,0,1-1.37,1,5,5,0,0,1-1.87.32,4.09,4.09,0,0,1-2.85-1,3.31,3.31,0,0,1-1.08-2.58,2.84,2.84,0,0,1,1.3-2.53,6.61,6.61,0,0,1,3.73-.88c.3,0,.6,0,.88,0l.78.1v-.55a1.54,1.54,0,0,0-.41-1.14,1.65,1.65,0,0,0-1.17-.39,1.69,1.69,0,0,0-1.17.39,1.91,1.91,0,0,0-.54,1.14h-3.24a4.8,4.8,0,0,1,.76-2.3,4.42,4.42,0,0,1,1.74-1.52,5.44,5.44,0,0,1,2.47-.54,5.22,5.22,0,0,1,3.64,1.2,4.33,4.33,0,0,1,1.31,3.35v7Zm-3.79-3.45a1.1,1.1,0,0,0,.37.86,1.53,1.53,0,0,0,1,.31,2.17,2.17,0,0,0,1.41-.4,1.3,1.3,0,0,0,.51-1.09v-.72c-.27-.05-.51-.09-.74-.11s-.45,0-.69,0a2.74,2.74,0,0,0-1.39.29A1,1,0,0,0,782.94,692.63Z" transform="translate(-336 0)"/><path class="cls-5" d="M798.6,691.22v-6.46h3.6v11.32h-3.3v-1.22a3.4,3.4,0,0,1-1.32,1,4.38,4.38,0,0,1-1.84.4,4.24,4.24,0,0,1-2-.48,3.32,3.32,0,0,1-1.42-1.45,5.17,5.17,0,0,1-.52-2.47v-7.13h3.6v6.46a2,2,0,0,0,.43,1.39,1.63,1.63,0,0,0,1.92.26,1.8,1.8,0,0,0,.62-.61A2,2,0,0,0,798.6,691.22Z" transform="translate(-336 0)"/><path class="cls-5" d="M807.67,696.08h-4l3.66-5.75-3.41-5.57h4.19l1.89,3.59,1.9-3.59h3.81l-3.35,5.72,3.62,5.6h-4.1l-2.13-3.71Z" transform="translate(-336 0)"/><rect class="cls-6" x="74" y="593" width="134" height="23"/><path class="cls-5" d="M428.82,607.53a4.08,4.08,0,0,1-1.49,3.34,6.45,6.45,0,0,1-4.13,1.21H417V597H423a6.57,6.57,0,0,1,3.93,1,3.52,3.52,0,0,1,1.44,3,3.16,3.16,0,0,1-.51,1.77,4.19,4.19,0,0,1-1.45,1.34,4.24,4.24,0,0,1,1.78,1.33A3.36,3.36,0,0,1,428.82,607.53Zm-6.12-7.43h-2.15v2.61h2.15a2.51,2.51,0,0,0,1.46-.35,1.18,1.18,0,0,0,.47-1,1.11,1.11,0,0,0-.47-.94A2.51,2.51,0,0,0,422.7,600.1Zm.18,5.75h-2.33v3.09h2.33a2.68,2.68,0,0,0,1.66-.42,1.39,1.39,0,0,0,.53-1.14,1.36,1.36,0,0,0-.53-1.11A2.68,2.68,0,0,0,422.88,605.85Z" transform="translate(-336 0)"/><path class="cls-5" d="M437.13,612.08V611a3.57,3.57,0,0,1-1.37,1,5,5,0,0,1-1.87.32,4.09,4.09,0,0,1-2.85-1,3.31,3.31,0,0,1-1.08-2.58,2.84,2.84,0,0,1,1.3-2.53,6.61,6.61,0,0,1,3.73-.88c.3,0,.6,0,.88,0l.78.1v-.55a1.54,1.54,0,0,0-.41-1.14,1.65,1.65,0,0,0-1.17-.39,1.69,1.69,0,0,0-1.17.39,1.86,1.86,0,0,0-.54,1.14h-3.24a4.8,4.8,0,0,1,.76-2.3,4.35,4.35,0,0,1,1.74-1.52,5.44,5.44,0,0,1,2.47-.54,5.22,5.22,0,0,1,3.64,1.2,4.33,4.33,0,0,1,1.31,3.35v7Zm-3.79-3.45a1.1,1.1,0,0,0,.37.86,1.53,1.53,0,0,0,1,.31,2.17,2.17,0,0,0,1.41-.4,1.3,1.3,0,0,0,.51-1.09v-.72c-.27-.05-.52-.09-.74-.11s-.45,0-.69,0a2.74,2.74,0,0,0-1.39.29A1,1,0,0,0,433.34,608.63Z" transform="translate(-336 0)"/><path class="cls-5" d="M452.33,608.23a3.62,3.62,0,0,1-1.35,3,7.47,7.47,0,0,1-7.85,0,4.24,4.24,0,0,1-1.56-3.08H445a1.32,1.32,0,0,0,.59,1.13,2.49,2.49,0,0,0,1.52.43,3.26,3.26,0,0,0,1.08-.17.61.61,0,0,0,.47-.61.64.64,0,0,0-.28-.57,2.29,2.29,0,0,0-.87-.3l-2.23-.4a4.49,4.49,0,0,1-2.36-1.11,2.91,2.91,0,0,1-.88-2.21,3.31,3.31,0,0,1,.58-1.94,3.85,3.85,0,0,1,1.68-1.31,6.24,6.24,0,0,1,2.55-.48,6.49,6.49,0,0,1,2.63.5,4.41,4.41,0,0,1,1.83,1.42,4.25,4.25,0,0,1,.78,2.19h-3.45a1.47,1.47,0,0,0-.54-1.06,1.9,1.9,0,0,0-1.22-.39,2.34,2.34,0,0,0-1,.18.57.57,0,0,0-.38.55.54.54,0,0,0,.27.51,2.91,2.91,0,0,0,.8.25l2.4.44a4.88,4.88,0,0,1,2.49,1.09A2.6,2.6,0,0,1,452.33,608.23Z" transform="translate(-336 0)"/><path class="cls-5" d="M464.11,608.23a3.62,3.62,0,0,1-1.35,3,6.05,6.05,0,0,1-3.91,1.1,6.12,6.12,0,0,1-3.94-1.13,4.26,4.26,0,0,1-1.55-3.08h3.45a1.3,1.3,0,0,0,.59,1.13,2.46,2.46,0,0,0,1.51.43,3.33,3.33,0,0,0,1.09-.17.62.62,0,0,0,.47-.61.64.64,0,0,0-.28-.57,2.35,2.35,0,0,0-.88-.3l-2.23-.4a4.53,4.53,0,0,1-2.36-1.11,2.91,2.91,0,0,1-.88-2.21,3.32,3.32,0,0,1,.59-1.94A3.82,3.82,0,0,1,456.1,601a6.32,6.32,0,0,1,2.56-.48,6.53,6.53,0,0,1,2.63.5,4.37,4.37,0,0,1,1.82,1.42,4.17,4.17,0,0,1,.79,2.19h-3.45a1.48,1.48,0,0,0-.55-1.06,1.88,1.88,0,0,0-1.22-.39,2.37,2.37,0,0,0-1,.18.58.58,0,0,0-.38.55.53.53,0,0,0,.28.51,2.8,2.8,0,0,0,.8.25l2.39.44a4.87,4.87,0,0,1,2.5,1.09A2.59,2.59,0,0,1,464.11,608.23Z" transform="translate(-336 0)"/><path class="cls-5" d="M471,612.27a6.16,6.16,0,0,1-3.06-.74,5.12,5.12,0,0,1-2-2.06,6.25,6.25,0,0,1-.73-3.07,6,6,0,0,1,.75-3A5.49,5.49,0,0,1,468,601.3a6.35,6.35,0,0,1,5.55-.23,5.38,5.38,0,0,1,1.9,1.46,5.61,5.61,0,0,1,1.08,2.17,6.21,6.21,0,0,1,.07,2.62h-9.24v-2.25h5.39a1.93,1.93,0,0,0-.53-1.37,1.8,1.8,0,0,0-1.31-.5,1.82,1.82,0,0,0-1.14.34,2.22,2.22,0,0,0-.69,1.07,6.09,6.09,0,0,0-.23,1.81,5.48,5.48,0,0,0,.23,1.69,2,2,0,0,0,.7,1,1.88,1.88,0,0,0,1.16.34,2.36,2.36,0,0,0,1.26-.32,1.77,1.77,0,0,0,.73-.92h3.6a5.27,5.27,0,0,1-2,3A5.81,5.81,0,0,1,471,612.27Z" transform="translate(-336 0)"/><path class="cls-5" d="M484.48,607.93h-6.31v-3.24h6.31Z" transform="translate(-336 0)"/><path class="cls-5" d="M492.77,612.08h-4V600.57h-4.63V597H497.4v3.6h-4.63Z" transform="translate(-336 0)"/><path class="cls-5" d="M502.75,612.27a6.2,6.2,0,0,1-3.07-.74,5.25,5.25,0,0,1-2-2.06,6.36,6.36,0,0,1-.72-3.07,6.06,6.06,0,0,1,.74-3,5.51,5.51,0,0,1,2.07-2.08,5.91,5.91,0,0,1,3-.76,6,6,0,0,1,2.55.53,5.29,5.29,0,0,1,1.9,1.46,5.49,5.49,0,0,1,1.09,2.17,6.06,6.06,0,0,1,.06,2.62h-9.24v-2.25h5.39a1.89,1.89,0,0,0-.53-1.37,1.77,1.77,0,0,0-1.3-.5,1.85,1.85,0,0,0-1.15.34,2.14,2.14,0,0,0-.68,1.07,5.78,5.78,0,0,0-.23,1.81,5.19,5.19,0,0,0,.23,1.69,2,2,0,0,0,.69,1,1.9,1.9,0,0,0,1.16.34,2.31,2.31,0,0,0,1.26-.32,1.79,1.79,0,0,0,.74-.92h3.6a5.24,5.24,0,0,1-2,3A5.78,5.78,0,0,1,502.75,612.27Z" transform="translate(-336 0)"/><path class="cls-5" d="M513.67,606.86v5.22h-3.6V600.76h3.3v2a4.27,4.27,0,0,1,1.89-1.53,6.19,6.19,0,0,1,2.57-.55v3.75a10.25,10.25,0,0,0-2.2,0,2.21,2.21,0,0,0-1.45.65A2.66,2.66,0,0,0,513.67,606.86Z" transform="translate(-336 0)"/><path class="cls-5" d="M522.82,606.86v5.22h-3.6V600.76h3.31v2a4.24,4.24,0,0,1,1.88-1.53,6.2,6.2,0,0,1,2.58-.55v3.75a10.25,10.25,0,0,0-2.2,0,2.16,2.16,0,0,0-1.45.65A2.6,2.6,0,0,0,522.82,606.86Z" transform="translate(-336 0)"/><path class="cls-5" d="M533.38,612.27a6.19,6.19,0,0,1-3.06-.74,5.25,5.25,0,0,1-2-2.06,6.36,6.36,0,0,1-.72-3.07,6,6,0,0,1,.74-3,5.51,5.51,0,0,1,2.07-2.08,5.91,5.91,0,0,1,3-.76,6,6,0,0,1,2.55.53,5.29,5.29,0,0,1,1.9,1.46,5.49,5.49,0,0,1,1.09,2.17,6.06,6.06,0,0,1,.06,2.62h-9.24v-2.25h5.39a1.89,1.89,0,0,0-.53-1.37,1.77,1.77,0,0,0-1.3-.5,1.85,1.85,0,0,0-1.15.34,2.14,2.14,0,0,0-.68,1.07,5.78,5.78,0,0,0-.23,1.81,5.19,5.19,0,0,0,.23,1.69,1.94,1.94,0,0,0,.69,1,1.9,1.9,0,0,0,1.16.34,2.31,2.31,0,0,0,1.26-.32,1.79,1.79,0,0,0,.74-.92h3.6a5.24,5.24,0,0,1-2,3A5.79,5.79,0,0,1,533.38,612.27Z" transform="translate(-336 0)"/><rect class="cls-6" x="114" y="709" width="164" height="23"/><path class="cls-5" d="M460.93,728.08h-4V713h10.29v3.45h-6.31v2.8h5.28v3.45h-5.28Z" transform="translate(-336 0)"/><path class="cls-5" d="M473.83,728.29a5.85,5.85,0,0,1-2.34-.46,5.71,5.71,0,0,1-1.87-1.26,5.79,5.79,0,0,1-1.25-1.87,5.91,5.91,0,0,1,0-4.57,5.79,5.79,0,0,1,1.25-1.87,5.71,5.71,0,0,1,1.87-1.26,6,6,0,0,1,2.34-.46,5.94,5.94,0,0,1,2.33.46,5.76,5.76,0,0,1,1.88,1.26,6,6,0,0,1,1.25,1.87,6,6,0,0,1,0,4.57,6,6,0,0,1-1.25,1.87,5.9,5.9,0,0,1-4.21,1.72Zm0-3.22a2,2,0,0,0,1.06-.3,2.08,2.08,0,0,0,.8-.88,3.2,3.2,0,0,0,.31-1.47,3.28,3.28,0,0,0-.31-1.48,2.09,2.09,0,0,0-2.91-.87,2.1,2.1,0,0,0-.82.87,3.28,3.28,0,0,0-.3,1.48,3.21,3.21,0,0,0,.3,1.47,2.12,2.12,0,0,0,.82.88A2,2,0,0,0,473.83,725.07Z" transform="translate(-336 0)"/><path class="cls-5" d="M485,722.86v5.22h-3.6V716.76h3.31v2a4.24,4.24,0,0,1,1.88-1.53,6.2,6.2,0,0,1,2.58-.55v3.75a10.25,10.25,0,0,0-2.2,0,2.16,2.16,0,0,0-1.45.65A2.6,2.6,0,0,0,485,722.86Z" transform="translate(-336 0)"/><path class="cls-5" d="M498.87,724.54v3.14a4.34,4.34,0,0,1-1.2.47,6.34,6.34,0,0,1-1.37.14,4.49,4.49,0,0,1-2.17-.49,3.24,3.24,0,0,1-1.38-1.41,4.6,4.6,0,0,1-.49-2.21v-4.29h-2.1v-3.13h2.1v-3.33h3.6v3.33H499v3.13h-3.09v3.45a1.73,1.73,0,0,0,.36,1.21,1.41,1.41,0,0,0,1.09.39,3.36,3.36,0,0,0,.85-.1A2.3,2.3,0,0,0,498.87,724.54Z" transform="translate(-336 0)"/><path class="cls-5" d="M505.9,723.93h-6.32v-3.24h6.32Z" transform="translate(-336 0)"/><path class="cls-5" d="M507.41,722.42a6.89,6.89,0,0,1,.63-3,5.27,5.27,0,0,1,1.77-2.12,4.57,4.57,0,0,1,2.65-.78,4.38,4.38,0,0,1,1.66.32,4.6,4.6,0,0,1,1.42.95V713h3.59v15.11h-3.3v-1.29a5,5,0,0,1-1.54,1.11,4.29,4.29,0,0,1-1.83.39,4.58,4.58,0,0,1-2.65-.79,5.37,5.37,0,0,1-1.77-2.13A6.81,6.81,0,0,1,507.41,722.42Zm3.75,0a2.61,2.61,0,0,0,.67,2,2.1,2.1,0,0,0,1.5.66,2,2,0,0,0,1.06-.3,2.08,2.08,0,0,0,.8-.88,3.23,3.23,0,0,0,.3-1.47,3.11,3.11,0,0,0-.31-1.49,2.08,2.08,0,0,0-.81-.85,2.11,2.11,0,0,0-2.54.36A2.61,2.61,0,0,0,511.16,722.42Z" transform="translate(-336 0)"/><path class="cls-5" d="M526.6,728.27a6.19,6.19,0,0,1-3.06-.74,5.25,5.25,0,0,1-2-2.06,6.36,6.36,0,0,1-.72-3.07,6,6,0,0,1,.74-3,5.56,5.56,0,0,1,2.06-2.08,6.35,6.35,0,0,1,5.55-.23,5.29,5.29,0,0,1,1.9,1.46,5.49,5.49,0,0,1,1.09,2.17,6.06,6.06,0,0,1,.06,2.62h-9.24v-2.25h5.39a1.89,1.89,0,0,0-.53-1.37,1.77,1.77,0,0,0-1.3-.5,1.85,1.85,0,0,0-1.15.34,2.14,2.14,0,0,0-.68,1.07,5.78,5.78,0,0,0-.23,1.81,5.19,5.19,0,0,0,.23,1.69,1.94,1.94,0,0,0,.69,1,1.9,1.9,0,0,0,1.16.34,2.31,2.31,0,0,0,1.26-.32,1.79,1.79,0,0,0,.74-.92h3.6a5.24,5.24,0,0,1-2,3A5.79,5.79,0,0,1,526.6,728.27Z" transform="translate(-336 0)"/><path class="cls-5" d="M540.11,723.93H533.8v-3.24h6.31Z" transform="translate(-336 0)"/><path class="cls-5" d="M546.2,728.08h-4V713h10.29v3.45H546.2v2.8h5.28v3.45H546.2Z" transform="translate(-336 0)"/><path class="cls-5" d="M557.71,722.86v5.22h-3.6V716.76h3.3v2a4.27,4.27,0,0,1,1.89-1.53,6.19,6.19,0,0,1,2.57-.55v3.75a10.25,10.25,0,0,0-2.2,0,2.21,2.21,0,0,0-1.45.65A2.66,2.66,0,0,0,557.71,722.86Z" transform="translate(-336 0)"/><path class="cls-5" d="M569.89,728.08V727a3.57,3.57,0,0,1-1.37,1,5,5,0,0,1-1.87.32,4.09,4.09,0,0,1-2.85-1,3.32,3.32,0,0,1-1.09-2.58A2.85,2.85,0,0,1,564,722.2a6.61,6.61,0,0,1,3.73-.88c.3,0,.6,0,.88,0l.78.1v-.55a1.54,1.54,0,0,0-.41-1.14,1.65,1.65,0,0,0-1.17-.39,1.69,1.69,0,0,0-1.17.39,1.86,1.86,0,0,0-.54,1.14h-3.24a4.8,4.8,0,0,1,.76-2.3,4.35,4.35,0,0,1,1.74-1.52,5.44,5.44,0,0,1,2.47-.54,5.22,5.22,0,0,1,3.64,1.2,4.33,4.33,0,0,1,1.3,3.35v7Zm-3.79-3.45a1.1,1.1,0,0,0,.37.86,1.53,1.53,0,0,0,1,.31,2.17,2.17,0,0,0,1.41-.4,1.3,1.3,0,0,0,.51-1.09v-.72c-.27-.05-.52-.09-.74-.11s-.46,0-.69,0a2.74,2.74,0,0,0-1.39.29A1,1,0,0,0,566.1,724.63Z" transform="translate(-336 0)"/><path class="cls-5" d="M578.65,722.12v6h-3.6V716.76h3.3v1.36a5.34,5.34,0,0,1,1.48-1.15,4.05,4.05,0,0,1,1.89-.43,3.65,3.65,0,0,1,2.74,1.1,4.35,4.35,0,0,1,1.07,3.16v7.28h-3.6V722a2.92,2.92,0,0,0-.39-1.65,1.35,1.35,0,0,0-1.21-.56,1.53,1.53,0,0,0-.83.23,1.56,1.56,0,0,0-.62.73A3.28,3.28,0,0,0,578.65,722.12Z" transform="translate(-336 0)"/><path class="cls-5" d="M592.77,728.29a5.75,5.75,0,0,1-3-.75,5.27,5.27,0,0,1-2-2.07,6.2,6.2,0,0,1-.73-3.05,6,6,0,0,1,.75-3,5.55,5.55,0,0,1,5-2.87,5.84,5.84,0,0,1,2.79.67,5.34,5.34,0,0,1,2,1.84,5.89,5.89,0,0,1,.93,2.76h-3.83a2.22,2.22,0,0,0-.56-1.48,1.76,1.76,0,0,0-1.33-.54,1.83,1.83,0,0,0-1.08.31,2,2,0,0,0-.68.9,3.69,3.69,0,0,0-.24,1.42,3.89,3.89,0,0,0,.23,1.44,1.81,1.81,0,0,0,.68.9,1.86,1.86,0,0,0,1.09.31,1.71,1.71,0,0,0,1.33-.54,2.37,2.37,0,0,0,.56-1.5h3.83a6.22,6.22,0,0,1-.9,2.8,5.27,5.27,0,0,1-2,1.82A6.17,6.17,0,0,1,592.77,728.29Z" transform="translate(-336 0)"/><path class="cls-5" d="M605.27,728.27a6.2,6.2,0,0,1-3.07-.74,5.25,5.25,0,0,1-2-2.06,6.36,6.36,0,0,1-.72-3.07,6.06,6.06,0,0,1,.74-3,5.51,5.51,0,0,1,2.07-2.08,5.92,5.92,0,0,1,3-.76,6,6,0,0,1,2.54.53,5.41,5.41,0,0,1,1.91,1.46,5.61,5.61,0,0,1,1.08,2.17,6.06,6.06,0,0,1,.06,2.62H601.6v-2.25H607a1.89,1.89,0,0,0-.53-1.37,1.77,1.77,0,0,0-1.3-.5,1.87,1.87,0,0,0-1.15.34,2.14,2.14,0,0,0-.68,1.07,5.78,5.78,0,0,0-.23,1.81,5.19,5.19,0,0,0,.23,1.69,2,2,0,0,0,.69,1,1.9,1.9,0,0,0,1.16.34,2.31,2.31,0,0,0,1.26-.32,1.79,1.79,0,0,0,.74-.92h3.6a5.24,5.24,0,0,1-2,3A5.78,5.78,0,0,1,605.27,728.27Z" transform="translate(-336 0)"/><rect class="cls-6" x="121" y="848" width="100" height="23"/><path class="cls-5" d="M470.75,867.39a7.52,7.52,0,0,1-5.45-2.28,7.78,7.78,0,0,1-1.64-2.52,8,8,0,0,1,1.64-8.67,7.67,7.67,0,0,1,2.45-1.67,7.51,7.51,0,0,1,3-.6,8.28,8.28,0,0,1,3.76.85,7.4,7.4,0,0,1,2.76,2.38,7.54,7.54,0,0,1,1.31,3.53h-4.21a4,4,0,0,0-.66-1.68,3.53,3.53,0,0,0-1.25-1.12,3.44,3.44,0,0,0-1.67-.4,3.72,3.72,0,0,0-1.52.3,3.27,3.27,0,0,0-1.14.88,4,4,0,0,0-.73,1.35,6.36,6.36,0,0,0,0,3.53,4,4,0,0,0,.73,1.37,3.27,3.27,0,0,0,1.14.88,3.56,3.56,0,0,0,1.52.32,3.44,3.44,0,0,0,1.67-.41,3.57,3.57,0,0,0,1.24-1.14,4.35,4.35,0,0,0,.67-1.67h4.21a7.67,7.67,0,0,1-1.33,3.54,7.36,7.36,0,0,1-2.75,2.38A8.09,8.09,0,0,1,470.75,867.39Z" transform="translate(-336 0)"/><path class="cls-5" d="M487,867.08V866a3.57,3.57,0,0,1-1.37,1,5,5,0,0,1-1.87.32,4.09,4.09,0,0,1-2.85-1,3.31,3.31,0,0,1-1.08-2.58,2.84,2.84,0,0,1,1.3-2.53,6.61,6.61,0,0,1,3.73-.88c.3,0,.6,0,.88,0l.78.1v-.55a1.54,1.54,0,0,0-.41-1.14,1.64,1.64,0,0,0-1.17-.39,1.69,1.69,0,0,0-1.17.39,1.85,1.85,0,0,0-.53,1.14H480a4.91,4.91,0,0,1,.76-2.3,4.42,4.42,0,0,1,1.74-1.52,5.44,5.44,0,0,1,2.47-.54,5.22,5.22,0,0,1,3.64,1.2,4.33,4.33,0,0,1,1.31,3.35v7Zm-3.79-3.45a1.1,1.1,0,0,0,.37.86,1.53,1.53,0,0,0,1,.31,2.17,2.17,0,0,0,1.41-.4,1.3,1.3,0,0,0,.51-1.09v-.72c-.27-.05-.51-.09-.74-.11s-.45,0-.69,0a2.74,2.74,0,0,0-1.39.29A1,1,0,0,0,483.18,863.63Z" transform="translate(-336 0)"/><path class="cls-5" d="M502.59,855.76l-5.39,15.38h-3.94l1.58-4.19-4.42-11.19h3.92l2.44,7,2.19-7Z" transform="translate(-336 0)"/><path class="cls-5" d="M508.35,867.27a6.19,6.19,0,0,1-3.06-.74,5.18,5.18,0,0,1-2-2.06,6.36,6.36,0,0,1-.73-3.07,6,6,0,0,1,.75-3,5.56,5.56,0,0,1,2.06-2.08,6.35,6.35,0,0,1,5.55-.23,5.29,5.29,0,0,1,1.9,1.46,5.63,5.63,0,0,1,1.09,2.17,6.06,6.06,0,0,1,.06,2.62h-9.24v-2.25h5.39a1.89,1.89,0,0,0-.53-1.37,1.77,1.77,0,0,0-1.3-.5,1.85,1.85,0,0,0-1.15.34,2.14,2.14,0,0,0-.68,1.07,5.78,5.78,0,0,0-.23,1.81,5.19,5.19,0,0,0,.23,1.69,1.94,1.94,0,0,0,.69,1,1.9,1.9,0,0,0,1.16.34,2.33,2.33,0,0,0,1.26-.32,1.84,1.84,0,0,0,.74-.92h3.6a5.29,5.29,0,0,1-2,3A5.79,5.79,0,0,1,508.35,867.27Z" transform="translate(-336 0)"/><path class="cls-5" d="M519.28,861.12v6h-3.6V855.76H519v1.36a5.34,5.34,0,0,1,1.48-1.15,4.05,4.05,0,0,1,1.89-.43,3.65,3.65,0,0,1,2.74,1.1,4.35,4.35,0,0,1,1.07,3.16v7.28h-3.6V861a2.92,2.92,0,0,0-.39-1.65,1.35,1.35,0,0,0-1.21-.56,1.53,1.53,0,0,0-.83.23,1.56,1.56,0,0,0-.62.73A3.28,3.28,0,0,0,519.28,861.12Z" transform="translate(-336 0)"/><path class="cls-5" d="M532,861.12v6h-3.6V855.76h3.3v1.36A5.38,5.38,0,0,1,533.2,856a4,4,0,0,1,1.88-.43,3.68,3.68,0,0,1,2.75,1.1,4.39,4.39,0,0,1,1.06,3.16v7.28h-3.6V861a2.92,2.92,0,0,0-.39-1.65,1.35,1.35,0,0,0-1.21-.56,1.55,1.55,0,0,0-1.45,1A3.28,3.28,0,0,0,532,861.12Z" transform="translate(-336 0)"/><path class="cls-5" d="M546.25,867.27a6.19,6.19,0,0,1-3.06-.74,5.12,5.12,0,0,1-2-2.06,6.36,6.36,0,0,1-.73-3.07,6,6,0,0,1,.75-3,5.56,5.56,0,0,1,2.06-2.08,6.35,6.35,0,0,1,5.55-.23,5.29,5.29,0,0,1,1.9,1.46,5.63,5.63,0,0,1,1.09,2.17,6.06,6.06,0,0,1,.06,2.62h-9.24v-2.25H548a1.93,1.93,0,0,0-.53-1.37,1.77,1.77,0,0,0-1.3-.5,1.83,1.83,0,0,0-1.15.34,2.14,2.14,0,0,0-.68,1.07,5.78,5.78,0,0,0-.23,1.81,5.19,5.19,0,0,0,.23,1.69,1.94,1.94,0,0,0,.69,1,1.9,1.9,0,0,0,1.16.34,2.36,2.36,0,0,0,1.26-.32,1.84,1.84,0,0,0,.74-.92h3.6a5.29,5.29,0,0,1-2,3A5.79,5.79,0,0,1,546.25,867.27Z" transform="translate(-336 0)"/><rect class="cls-6" x="100" y="973" width="111" height="23"/><path class="cls-5" d="M455.05,987.13a4.68,4.68,0,0,1-.79,2.72,5.13,5.13,0,0,1-2.22,1.8,8.4,8.4,0,0,1-3.41.64,8.12,8.12,0,0,1-3.42-.67,5.58,5.58,0,0,1-2.31-1.88,5.81,5.81,0,0,1-1-2.88h4a2.36,2.36,0,0,0,.72,1.7,2.72,2.72,0,0,0,1.91.63,3.92,3.92,0,0,0,1.2-.16,1.78,1.78,0,0,0,.79-.51,1.18,1.18,0,0,0,.28-.8,1,1,0,0,0-.43-.83,2.45,2.45,0,0,0-1.1-.47l-2.76-.53a6.19,6.19,0,0,1-1.64-.53,4.51,4.51,0,0,1-1.28-.89,3.81,3.81,0,0,1-.82-1.26,4.46,4.46,0,0,1-.28-1.63,4.23,4.23,0,0,1,.76-2.5,5,5,0,0,1,2.08-1.69,7.1,7.1,0,0,1,3-.61,7.57,7.57,0,0,1,3.21.65,5.74,5.74,0,0,1,2.25,1.84,5.33,5.33,0,0,1,1,2.83h-4a2.56,2.56,0,0,0-.36-1.2,2.27,2.27,0,0,0-.82-.78,2.48,2.48,0,0,0-1.18-.27,2.4,2.4,0,0,0-1,.19,1.55,1.55,0,0,0-.65.52,1.25,1.25,0,0,0-.23.74.84.84,0,0,0,.2.58,1.46,1.46,0,0,0,.53.4,2.92,2.92,0,0,0,.74.24l2.93.57a6.1,6.1,0,0,1,3.07,1.4A3.49,3.49,0,0,1,455.05,987.13Z" transform="translate(-336 0)"/><path class="cls-5" d="M464.5,988.54v3.14a4.34,4.34,0,0,1-1.2.47,6.34,6.34,0,0,1-1.37.14,4.49,4.49,0,0,1-2.17-.49,3.24,3.24,0,0,1-1.38-1.41,4.6,4.6,0,0,1-.49-2.21v-4.29h-2.1v-3.13h2.1v-3.33h3.6v3.33h3.09v3.13h-3.09v3.45a1.73,1.73,0,0,0,.36,1.21,1.41,1.41,0,0,0,1.09.39,3.36,3.36,0,0,0,.85-.1A2.3,2.3,0,0,0,464.5,988.54Z" transform="translate(-336 0)"/><path class="cls-5" d="M471.53,987.93h-6.32v-3.24h6.32Z" transform="translate(-336 0)"/><path class="cls-5" d="M479.52,992.08h-5.89V977h5.89a8.59,8.59,0,0,1,4.15.94,6.74,6.74,0,0,1,2.69,2.63,7.74,7.74,0,0,1,.95,3.9,7.83,7.83,0,0,1-1,3.92,6.93,6.93,0,0,1-2.72,2.73A8.21,8.21,0,0,1,479.52,992.08Zm-1.91-11.68v8.25h1.68a4.63,4.63,0,0,0,2.2-.47,2.9,2.9,0,0,0,1.31-1.39,5.77,5.77,0,0,0,.43-2.35,5.08,5.08,0,0,0-.44-2.24,3,3,0,0,0-1.32-1.35,4.73,4.73,0,0,0-2.18-.45Z" transform="translate(-336 0)"/><path class="cls-5" d="M494.19,992.27a6.19,6.19,0,0,1-3.06-.74,5.12,5.12,0,0,1-2-2.06,6.25,6.25,0,0,1-.73-3.07,6,6,0,0,1,.75-3,5.49,5.49,0,0,1,2.06-2.08,6.35,6.35,0,0,1,5.55-.23,5.38,5.38,0,0,1,1.9,1.46,5.77,5.77,0,0,1,1.09,2.17,6.06,6.06,0,0,1,.06,2.62h-9.24v-2.25h5.39a1.93,1.93,0,0,0-.53-1.37,1.79,1.79,0,0,0-1.3-.5,1.83,1.83,0,0,0-1.15.34,2.14,2.14,0,0,0-.68,1.07,5.75,5.75,0,0,0-.24,1.81,5.17,5.17,0,0,0,.24,1.69,1.94,1.94,0,0,0,.69,1,1.88,1.88,0,0,0,1.16.34,2.36,2.36,0,0,0,1.26-.32,1.84,1.84,0,0,0,.74-.92h3.6a5.34,5.34,0,0,1-2,3A5.81,5.81,0,0,1,494.19,992.27Z" transform="translate(-336 0)"/><path class="cls-5" d="M505.11,986.12v6h-3.6V980.76h3.31v1.36A5.34,5.34,0,0,1,506.3,981a4.05,4.05,0,0,1,1.89-.43,3.65,3.65,0,0,1,2.74,1.1A4.34,4.34,0,0,1,512,984.8v7.28H508.4V986a2.92,2.92,0,0,0-.39-1.65,1.36,1.36,0,0,0-1.21-.56,1.56,1.56,0,0,0-.84.23,1.68,1.68,0,0,0-.62.73A3.45,3.45,0,0,0,505.11,986.12Z" transform="translate(-336 0)"/><path class="cls-5" d="M517.84,986.12v6h-3.59V980.76h3.3v1.36A5.34,5.34,0,0,1,519,981a4.05,4.05,0,0,1,1.89-.43,3.65,3.65,0,0,1,2.74,1.1,4.35,4.35,0,0,1,1.07,3.16v7.28h-3.6V986a2.92,2.92,0,0,0-.39-1.65,1.35,1.35,0,0,0-1.21-.56,1.53,1.53,0,0,0-.83.23,1.56,1.56,0,0,0-.62.73A3.27,3.27,0,0,0,517.84,986.12Z" transform="translate(-336 0)"/><path class="cls-5" d="M531.06,978.12a1.9,1.9,0,0,1-.64,1.47,2.71,2.71,0,0,1-3.35,0,2,2,0,0,1,0-3,2.71,2.71,0,0,1,3.35,0A1.9,1.9,0,0,1,531.06,978.12Zm-.48,14H527V980.76h3.6Z" transform="translate(-336 0)"/><path class="cls-5" d="M543,988.23a3.62,3.62,0,0,1-1.35,3,6.05,6.05,0,0,1-3.91,1.1,6.12,6.12,0,0,1-3.94-1.13,4.26,4.26,0,0,1-1.55-3.08h3.45a1.3,1.3,0,0,0,.59,1.13,2.48,2.48,0,0,0,1.51.43,3.33,3.33,0,0,0,1.09-.17.62.62,0,0,0,.47-.61.64.64,0,0,0-.28-.57,2.35,2.35,0,0,0-.88-.3l-2.23-.4a4.53,4.53,0,0,1-2.36-1.11,2.94,2.94,0,0,1-.88-2.21,3.32,3.32,0,0,1,.59-1.94A3.82,3.82,0,0,1,535,981a6.32,6.32,0,0,1,2.56-.48,6.53,6.53,0,0,1,2.63.5,4.37,4.37,0,0,1,1.82,1.42,4.17,4.17,0,0,1,.79,2.19h-3.45a1.48,1.48,0,0,0-.55-1.06,1.88,1.88,0,0,0-1.22-.39,2.37,2.37,0,0,0-1,.18.58.58,0,0,0-.38.55.53.53,0,0,0,.28.51,2.8,2.8,0,0,0,.8.25l2.39.44a4.87,4.87,0,0,1,2.5,1.09A2.59,2.59,0,0,1,543,988.23Z" transform="translate(-336 0)"/><rect class="cls-6" x="230" y="1006" width="104" height="23"/><path class="cls-5" d="M585.05,1020.13a4.68,4.68,0,0,1-.79,2.72,5.13,5.13,0,0,1-2.22,1.8,8.4,8.4,0,0,1-3.41.64,8.12,8.12,0,0,1-3.42-.67,5.58,5.58,0,0,1-2.31-1.88,5.81,5.81,0,0,1-1-2.88h4a2.36,2.36,0,0,0,.72,1.7,2.72,2.72,0,0,0,1.91.63,3.92,3.92,0,0,0,1.2-.16,1.78,1.78,0,0,0,.79-.51,1.18,1.18,0,0,0,.28-.8,1,1,0,0,0-.43-.83,2.45,2.45,0,0,0-1.1-.47l-2.76-.53a6.19,6.19,0,0,1-1.64-.53,4.51,4.51,0,0,1-1.28-.89,3.81,3.81,0,0,1-.82-1.26,4.46,4.46,0,0,1-.28-1.63,4.23,4.23,0,0,1,.76-2.5,5,5,0,0,1,2.08-1.69,7.1,7.1,0,0,1,3-.61,7.57,7.57,0,0,1,3.21.65,5.74,5.74,0,0,1,2.25,1.84,5.33,5.33,0,0,1,1,2.83h-4a2.56,2.56,0,0,0-.36-1.2,2.27,2.27,0,0,0-.82-.78,2.48,2.48,0,0,0-1.18-.27,2.4,2.4,0,0,0-1,.19,1.55,1.55,0,0,0-.65.52,1.25,1.25,0,0,0-.23.74.84.84,0,0,0,.2.58,1.46,1.46,0,0,0,.53.4,2.92,2.92,0,0,0,.74.24l2.93.57a6.1,6.1,0,0,1,3.07,1.4A3.49,3.49,0,0,1,585.05,1020.13Z" transform="translate(-336 0)"/><path class="cls-5" d="M594.5,1021.54v3.14a4.34,4.34,0,0,1-1.2.47,6.34,6.34,0,0,1-1.37.14,4.49,4.49,0,0,1-2.17-.49,3.24,3.24,0,0,1-1.38-1.41,4.6,4.6,0,0,1-.49-2.21v-4.29h-2.1v-3.13h2.1v-3.33h3.6v3.33h3.09v3.13h-3.09v3.45a1.73,1.73,0,0,0,.36,1.21,1.41,1.41,0,0,0,1.09.39,3.36,3.36,0,0,0,.85-.1A2.3,2.3,0,0,0,594.5,1021.54Z" transform="translate(-336 0)"/><path class="cls-5" d="M601.53,1020.93h-6.32v-3.24h6.32Z" transform="translate(-336 0)"/><path class="cls-5" d="M609.52,1020.47h-1.91v4.61h-4V1010h5.89a8.89,8.89,0,0,1,3.4.58,4.56,4.56,0,0,1,2.18,1.72,5,5,0,0,1,.76,2.85,5.27,5.27,0,0,1-.76,2.9,4.8,4.8,0,0,1-2.18,1.82A8.32,8.32,0,0,1,609.52,1020.47Zm0-7.16h-1.89v3.81h1.89a2.62,2.62,0,0,0,1.79-.54,1.81,1.81,0,0,0,.61-1.41,1.64,1.64,0,0,0-.61-1.37A2.79,2.79,0,0,0,609.5,1013.31Z" transform="translate(-336 0)"/><path class="cls-5" d="M621.67,1011.12a1.91,1.91,0,0,1-.65,1.47,2.69,2.69,0,0,1-3.34,0,2,2,0,0,1,0-3,2.69,2.69,0,0,1,3.34,0A1.91,1.91,0,0,1,621.67,1011.12Zm-.49,14h-3.6v-11.32h3.6Z" transform="translate(-336 0)"/><path class="cls-5" d="M628.65,1025.27a6.19,6.19,0,0,1-3.06-.74,5.12,5.12,0,0,1-2-2.06,6.36,6.36,0,0,1-.73-3.07,6,6,0,0,1,.75-3,5.56,5.56,0,0,1,2.06-2.08,6.35,6.35,0,0,1,5.55-.23,5.29,5.29,0,0,1,1.9,1.46,5.63,5.63,0,0,1,1.09,2.17,6.06,6.06,0,0,1,.06,2.62H625v-2.25h5.39a1.93,1.93,0,0,0-.53-1.37,1.77,1.77,0,0,0-1.3-.5,1.83,1.83,0,0,0-1.15.34,2.14,2.14,0,0,0-.68,1.07,5.78,5.78,0,0,0-.23,1.81,5.19,5.19,0,0,0,.23,1.69,1.94,1.94,0,0,0,.69,1,1.9,1.9,0,0,0,1.16.34,2.36,2.36,0,0,0,1.26-.32,1.84,1.84,0,0,0,.74-.92h3.6a5.29,5.29,0,0,1-2,3A5.81,5.81,0,0,1,628.65,1025.27Z" transform="translate(-336 0)"/><path class="cls-5" d="M639.57,1019.86v5.22H636v-11.32h3.3v2a4.24,4.24,0,0,1,1.88-1.53,6.2,6.2,0,0,1,2.58-.55v3.75a10.25,10.25,0,0,0-2.2,0,2.19,2.19,0,0,0-1.45.65A2.65,2.65,0,0,0,639.57,1019.86Z" transform="translate(-336 0)"/><path class="cls-5" d="M648.73,1019.86v5.22h-3.6v-11.32h3.3v2a4.33,4.33,0,0,1,1.89-1.53,6.19,6.19,0,0,1,2.57-.55v3.75a10.16,10.16,0,0,0-2.19,0,2.21,2.21,0,0,0-1.46.65A2.66,2.66,0,0,0,648.73,1019.86Z" transform="translate(-336 0)"/><path class="cls-5" d="M659.29,1025.27a6.19,6.19,0,0,1-3.06-.74,5.12,5.12,0,0,1-2-2.06,6.36,6.36,0,0,1-.73-3.07,6,6,0,0,1,.75-3,5.56,5.56,0,0,1,2.06-2.08,6.35,6.35,0,0,1,5.55-.23,5.29,5.29,0,0,1,1.9,1.46,5.77,5.77,0,0,1,1.09,2.17,6.06,6.06,0,0,1,.06,2.62h-9.24v-2.25H661a1.93,1.93,0,0,0-.53-1.37,1.77,1.77,0,0,0-1.3-.5,1.83,1.83,0,0,0-1.15.34,2.14,2.14,0,0,0-.68,1.07,5.75,5.75,0,0,0-.24,1.81,5.17,5.17,0,0,0,.24,1.69,1.94,1.94,0,0,0,.69,1,1.9,1.9,0,0,0,1.16.34,2.36,2.36,0,0,0,1.26-.32,1.84,1.84,0,0,0,.74-.92h3.6a5.29,5.29,0,0,1-2,3A5.81,5.81,0,0,1,659.29,1025.27Z" transform="translate(-336 0)"/><rect class="cls-6" x="338" y="1014" width="138" height="23"/><path class="cls-5" d="M687.79,1033.08l-3.24-8.71v8.71H681V1018h4.69l3.81,10.25,3.79-10.25h4.69v15.11h-3.6v-8.82l-3.26,8.82Z" transform="translate(-336 0)"/><path class="cls-5" d="M707.21,1033.08V1032a3.61,3.61,0,0,1-1.36,1,5,5,0,0,1-1.88.32,4.09,4.09,0,0,1-2.85-1,3.31,3.31,0,0,1-1.08-2.58,2.84,2.84,0,0,1,1.3-2.53,6.61,6.61,0,0,1,3.73-.88c.31,0,.6,0,.88,0l.78.1v-.55a1.54,1.54,0,0,0-.41-1.14,1.62,1.62,0,0,0-1.17-.39,1.69,1.69,0,0,0-1.17.39,1.91,1.91,0,0,0-.53,1.14h-3.24a4.79,4.79,0,0,1,.75-2.3,4.42,4.42,0,0,1,1.74-1.52,5.47,5.47,0,0,1,2.47-.54,5.22,5.22,0,0,1,3.64,1.2,4.33,4.33,0,0,1,1.31,3.35v7Zm-3.78-3.45a1.09,1.09,0,0,0,.36.86,1.53,1.53,0,0,0,1,.31,2.17,2.17,0,0,0,1.41-.4,1.3,1.3,0,0,0,.51-1.09v-.72c-.27,0-.51-.09-.74-.11s-.45,0-.69,0a2.77,2.77,0,0,0-1.39.29A1,1,0,0,0,703.43,1029.63Z" transform="translate(-336 0)"/><path class="cls-5" d="M716,1033.08h-3.6v-11.32h3.3v1.38a5.42,5.42,0,0,1,1.41-1.17,3.8,3.8,0,0,1,1.85-.43,4,4,0,0,1,1.91.45,3.11,3.11,0,0,1,1.29,1.3,6.14,6.14,0,0,1,1.57-1.28,4.2,4.2,0,0,1,2.07-.47,3.68,3.68,0,0,1,2.76,1.1,4.3,4.3,0,0,1,1.07,3.16v7.28H726v-6.17a2.73,2.73,0,0,0-.38-1.56,1.32,1.32,0,0,0-1.17-.56,1.54,1.54,0,0,0-1.43.91,2.76,2.76,0,0,0-.23,1.23v6.15h-3.6v-6.17a2.73,2.73,0,0,0-.39-1.56,1.32,1.32,0,0,0-1.17-.56,1.6,1.6,0,0,0-.84.22,1.52,1.52,0,0,0-.6.69,2.91,2.91,0,0,0-.22,1.23Z" transform="translate(-336 0)"/><path class="cls-5" d="M737.05,1033.29a5.9,5.9,0,0,1-4.21-1.72,6,6,0,0,1-1.25-1.87,6,6,0,0,1,0-4.57,6,6,0,0,1,1.25-1.87,5.76,5.76,0,0,1,1.88-1.26,5.94,5.94,0,0,1,2.33-.46,6,6,0,0,1,2.34.46,5.71,5.71,0,0,1,1.87,1.26,6,6,0,0,1,1.25,1.87,5.91,5.91,0,0,1,0,4.57,6,6,0,0,1-1.25,1.87,5.71,5.71,0,0,1-1.87,1.26A5.85,5.85,0,0,1,737.05,1033.29Zm0-3.22a2,2,0,0,0,1.07-.3,2.15,2.15,0,0,0,.8-.88,3.21,3.21,0,0,0,.3-1.47,3.28,3.28,0,0,0-.3-1.48,2.1,2.1,0,0,0-2.92-.87,2,2,0,0,0-.81.87,3.28,3.28,0,0,0-.3,1.48,3.21,3.21,0,0,0,.3,1.47,2.11,2.11,0,0,0,1.86,1.18Z" transform="translate(-336 0)"/><path class="cls-5" d="M751.32,1028.22v-6.46h3.6v11.32h-3.3v-1.22a3.4,3.4,0,0,1-1.32,1,4.38,4.38,0,0,1-1.84.4,4.22,4.22,0,0,1-2-.48,3.27,3.27,0,0,1-1.42-1.45,5.17,5.17,0,0,1-.52-2.47v-7.13h3.6v6.46a2,2,0,0,0,.43,1.39,1.63,1.63,0,0,0,1.92.26,1.8,1.8,0,0,0,.62-.61A2,2,0,0,0,751.32,1028.22Z" transform="translate(-336 0)"/><path class="cls-5" d="M756.56,1027.42a6.89,6.89,0,0,1,.63-3,5.2,5.2,0,0,1,1.77-2.12,4.57,4.57,0,0,1,2.65-.78,4.29,4.29,0,0,1,1.65.32,4.37,4.37,0,0,1,1.42.95V1018h3.6v15.11H765v-1.29a5.11,5.11,0,0,1-1.54,1.11,4.29,4.29,0,0,1-1.83.39,4.58,4.58,0,0,1-2.65-.79,5.29,5.29,0,0,1-1.77-2.13A6.81,6.81,0,0,1,756.56,1027.42Zm3.75,0a2.61,2.61,0,0,0,.67,2,2.1,2.1,0,0,0,1.49.66,2,2,0,0,0,1.07-.3,2.15,2.15,0,0,0,.8-.88,3.23,3.23,0,0,0,.3-1.47,3.11,3.11,0,0,0-.31-1.49,2.09,2.09,0,0,0-3.35-.49A2.61,2.61,0,0,0,760.31,1027.42Z" transform="translate(-336 0)"/><path class="cls-5" d="M780.3,1033.08h-9.91v-3l5.28-5.2h-5.41v-3.15h9.91v3l-5.34,5.13h5.47Z" transform="translate(-336 0)"/><path class="cls-5" d="M787.26,1033.29a5.9,5.9,0,0,1-4.21-1.72,6,6,0,0,1-1.25-1.87,6,6,0,0,1,0-4.57,6,6,0,0,1,1.25-1.87,5.76,5.76,0,0,1,1.88-1.26,5.94,5.94,0,0,1,2.33-.46,6,6,0,0,1,2.34.46,5.71,5.71,0,0,1,1.87,1.26,6,6,0,0,1,1.25,1.87,5.91,5.91,0,0,1,0,4.57,6,6,0,0,1-1.25,1.87,5.71,5.71,0,0,1-1.87,1.26A5.85,5.85,0,0,1,787.26,1033.29Zm0-3.22a2,2,0,0,0,1.07-.3,2.06,2.06,0,0,0,.79-.88,3.08,3.08,0,0,0,.31-1.47,3.15,3.15,0,0,0-.31-1.48,2,2,0,0,0-.79-.87,2.15,2.15,0,0,0-2.12,0,2,2,0,0,0-.81.87,3.28,3.28,0,0,0-.3,1.48,3.21,3.21,0,0,0,.3,1.47,2.11,2.11,0,0,0,1.86,1.18Z" transform="translate(-336 0)"/><path class="cls-5" d="M801.53,1028.22v-6.46h3.6v11.32h-3.3v-1.22a3.4,3.4,0,0,1-1.32,1,4.38,4.38,0,0,1-1.84.4,4.22,4.22,0,0,1-2-.48,3.27,3.27,0,0,1-1.42-1.45,5.17,5.17,0,0,1-.52-2.47v-7.13h3.6v6.46a2,2,0,0,0,.43,1.39,1.63,1.63,0,0,0,1.92.26,1.8,1.8,0,0,0,.62-.61A2,2,0,0,0,801.53,1028.22Z" transform="translate(-336 0)"/><rect class="cls-6" x="1084" y="944" width="86" height="23"/><path class="cls-5" d="M1436.8,963.08l-3.54-10.74-3.64,10.74h-4l5.6-15.11h4.36l5.53,15.11Zm-6.78-5.94h6.42l1,3.14H1429Z" transform="translate(-336 0)"/><path class="cls-5" d="M1446,951.76v10.75a6.12,6.12,0,0,1-.55,2.8,3.58,3.58,0,0,1-1.52,1.56,4.79,4.79,0,0,1-2.18.48c-.28,0-.56,0-.84,0a4.24,4.24,0,0,1-.84-.19v-3.39a1.5,1.5,0,0,0,.55.21,3.55,3.55,0,0,0,.67.06,1,1,0,0,0,.8-.34,1.91,1.91,0,0,0,.32-1.26V951.76Zm.49-2.64a1.93,1.93,0,0,1-.64,1.47,2.71,2.71,0,0,1-3.35,0,2,2,0,0,1,0-3,2.71,2.71,0,0,1,3.35,0A1.94,1.94,0,0,1,1446.46,949.12Z" transform="translate(-336 0)"/><path class="cls-5" d="M1455,963.08V962a3.57,3.57,0,0,1-1.37,1,5,5,0,0,1-1.87.32,4.09,4.09,0,0,1-2.85-1,3.28,3.28,0,0,1-1.09-2.58,2.85,2.85,0,0,1,1.31-2.53,6.6,6.6,0,0,1,3.72-.88c.31,0,.61,0,.89,0l.78.1v-.55a1.54,1.54,0,0,0-.41-1.14,1.65,1.65,0,0,0-1.17-.39,1.69,1.69,0,0,0-1.17.39,1.86,1.86,0,0,0-.54,1.14H1448a4.69,4.69,0,0,1,.76-2.3,4.28,4.28,0,0,1,1.74-1.52,5.44,5.44,0,0,1,2.47-.54,5.22,5.22,0,0,1,3.64,1.2,4.33,4.33,0,0,1,1.3,3.35v7Zm-3.79-3.45a1.06,1.06,0,0,0,.37.86,1.53,1.53,0,0,0,1,.31,2.21,2.21,0,0,0,1.41-.4,1.3,1.3,0,0,0,.51-1.09v-.72c-.27-.05-.52-.09-.74-.11s-.46,0-.7,0a2.73,2.73,0,0,0-1.38.29A1,1,0,0,0,1451.17,959.63Z" transform="translate(-336 0)"/><path class="cls-5" d="M1465.1,963.29a5.8,5.8,0,0,1-3-.75,5.31,5.31,0,0,1-2-2.07,6.2,6.2,0,0,1-.73-3.05,6,6,0,0,1,.75-3,5.55,5.55,0,0,1,4.95-2.87,5.88,5.88,0,0,1,2.8.67,5.41,5.41,0,0,1,2,1.84,5.89,5.89,0,0,1,.93,2.76H1467a2.27,2.27,0,0,0-.56-1.48,2,2,0,0,0-2.41-.23,2,2,0,0,0-.68.9,3.68,3.68,0,0,0-.25,1.42,3.88,3.88,0,0,0,.24,1.44,1.81,1.81,0,0,0,.68.9,1.83,1.83,0,0,0,1.08.31,1.73,1.73,0,0,0,1.34-.54,2.37,2.37,0,0,0,.56-1.5h3.83a6.11,6.11,0,0,1-.91,2.8,5.2,5.2,0,0,1-2,1.82A6.17,6.17,0,0,1,1465.1,963.29Z" transform="translate(-336 0)"/><path class="cls-5" d="M1477.48,963.29a5.77,5.77,0,0,1-3-.75,5.27,5.27,0,0,1-2-2.07,6.31,6.31,0,0,1-.73-3.05,6,6,0,0,1,.75-3,5.55,5.55,0,0,1,5-2.87,5.91,5.91,0,0,1,2.8.67,5.49,5.49,0,0,1,2,1.84,6,6,0,0,1,.92,2.76h-3.83a2.22,2.22,0,0,0-.56-1.48,1.76,1.76,0,0,0-1.33-.54,1.83,1.83,0,0,0-1.08.31,2,2,0,0,0-.68.9,3.69,3.69,0,0,0-.24,1.42,4.1,4.1,0,0,0,.23,1.44,1.81,1.81,0,0,0,.68.9,1.86,1.86,0,0,0,1.09.31,1.71,1.71,0,0,0,1.33-.54,2.37,2.37,0,0,0,.56-1.5h3.83a6.22,6.22,0,0,1-.9,2.8,5.27,5.27,0,0,1-2,1.82A6.17,6.17,0,0,1,1477.48,963.29Z" transform="translate(-336 0)"/><path class="cls-5" d="M1489,949.12a1.91,1.91,0,0,1-.65,1.47,2.69,2.69,0,0,1-3.34,0,2,2,0,0,1,0-3,2.69,2.69,0,0,1,3.34,0A1.91,1.91,0,0,1,1489,949.12Zm-.49,14h-3.6V951.76h3.6Z" transform="translate(-336 0)"/><path class="cls-5" d="M1496,963.29a5.82,5.82,0,0,1-2.34-.46,5.61,5.61,0,0,1-1.87-1.26,6,6,0,0,1-1.26-1.87,6,6,0,0,1,0-4.57,6,6,0,0,1,1.26-1.87,5.61,5.61,0,0,1,1.87-1.26,6.16,6.16,0,0,1,4.67,0,5.61,5.61,0,0,1,1.87,1.26,6,6,0,0,1,1.26,1.87,6,6,0,0,1,0,4.57,6,6,0,0,1-1.26,1.87,5.61,5.61,0,0,1-1.87,1.26A5.77,5.77,0,0,1,1496,963.29Zm0-3.22a2,2,0,0,0,1.06-.3,2.15,2.15,0,0,0,.8-.88,3.21,3.21,0,0,0,.3-1.47,3.28,3.28,0,0,0-.3-1.48,2.08,2.08,0,0,0-3.73,0,3.28,3.28,0,0,0-.3,1.48,3.21,3.21,0,0,0,.3,1.47,2.17,2.17,0,0,0,.81.88A2.05,2.05,0,0,0,1496,960.07Z" transform="translate(-336 0)"/><g id="Calque_26" data-name="Calque 26"><rect class="cls-6" x="983" y="280" width="128" height="23"/><path class="cls-5" d="M1338.05,294.13a4.68,4.68,0,0,1-.79,2.72,5.13,5.13,0,0,1-2.22,1.8,8.4,8.4,0,0,1-3.41.64,8.12,8.12,0,0,1-3.42-.67,5.5,5.5,0,0,1-2.31-1.88,5.81,5.81,0,0,1-1-2.88h4a2.36,2.36,0,0,0,.72,1.7,2.72,2.72,0,0,0,1.91.63,3.92,3.92,0,0,0,1.2-.16,1.78,1.78,0,0,0,.79-.51,1.18,1.18,0,0,0,.28-.8,1,1,0,0,0-.43-.83,2.45,2.45,0,0,0-1.1-.47l-2.76-.53a6.19,6.19,0,0,1-1.64-.53,4.51,4.51,0,0,1-1.28-.89,3.81,3.81,0,0,1-.82-1.26,4.46,4.46,0,0,1-.28-1.63,4.25,4.25,0,0,1,.76-2.5,5.07,5.07,0,0,1,2.08-1.69,7.1,7.1,0,0,1,3-.61,7.57,7.57,0,0,1,3.21.65,5.74,5.74,0,0,1,2.25,1.84,5.33,5.33,0,0,1,1,2.83h-4a2.56,2.56,0,0,0-.36-1.2,2.27,2.27,0,0,0-.82-.78,2.48,2.48,0,0,0-1.18-.27,2.4,2.4,0,0,0-1,.19,1.55,1.55,0,0,0-.65.52,1.25,1.25,0,0,0-.23.74.84.84,0,0,0,.2.58,1.46,1.46,0,0,0,.53.4,2.92,2.92,0,0,0,.74.24l2.93.57a6.1,6.1,0,0,1,3.07,1.4A3.49,3.49,0,0,1,1338.05,294.13Z" transform="translate(-336 0)"/><path class="cls-5" d="M1347.5,295.54v3.14a4.34,4.34,0,0,1-1.2.47,6.34,6.34,0,0,1-1.37.14,4.49,4.49,0,0,1-2.17-.49,3.24,3.24,0,0,1-1.38-1.41,4.6,4.6,0,0,1-.49-2.21v-4.29h-2.1v-3.13h2.1v-3.33h3.6v3.33h3.09v3.13h-3.09v3.45a1.73,1.73,0,0,0,.36,1.21,1.41,1.41,0,0,0,1.09.39,3.36,3.36,0,0,0,.85-.1A2.3,2.3,0,0,0,1347.5,295.54Z" transform="translate(-336 0)"/><path class="cls-5" d="M1352.78,293.86v5.22h-3.6V287.76h3.31v2a4.24,4.24,0,0,1,1.88-1.53,6.2,6.2,0,0,1,2.58-.55v3.75a10.25,10.25,0,0,0-2.2,0,2.16,2.16,0,0,0-1.45.65A2.6,2.6,0,0,0,1352.78,293.86Z" transform="translate(-336 0)"/><path class="cls-5" d="M1365,299.08V298a3.64,3.64,0,0,1-1.37,1,5,5,0,0,1-1.88.32,4.13,4.13,0,0,1-2.85-1,3.31,3.31,0,0,1-1.08-2.58,2.84,2.84,0,0,1,1.3-2.53,6.64,6.64,0,0,1,3.73-.88c.31,0,.6,0,.88,0s.54.06.78.1v-.55a1.54,1.54,0,0,0-.41-1.14,1.62,1.62,0,0,0-1.17-.39,1.64,1.64,0,0,0-1.16.39,1.86,1.86,0,0,0-.54,1.14H1358a4.69,4.69,0,0,1,.76-2.3,4.32,4.32,0,0,1,1.73-1.52,5.47,5.47,0,0,1,2.47-.54,5.17,5.17,0,0,1,3.64,1.2,4.33,4.33,0,0,1,1.31,3.35v7Zm-3.79-3.45a1.06,1.06,0,0,0,.37.86,1.5,1.5,0,0,0,1,.31,2.21,2.21,0,0,0,1.41-.4,1.32,1.32,0,0,0,.5-1.09v-.72c-.27,0-.51-.09-.73-.11s-.46,0-.7,0a2.77,2.77,0,0,0-1.39.29A1,1,0,0,0,1361.18,295.63Z" transform="translate(-336 0)"/><path class="cls-5" d="M1380.16,295.23a3.6,3.6,0,0,1-1.35,3,7.47,7.47,0,0,1-7.85,0,4.26,4.26,0,0,1-1.55-3.08h3.45a1.32,1.32,0,0,0,.59,1.14,2.52,2.52,0,0,0,1.51.42,3.22,3.22,0,0,0,1.08-.17.62.62,0,0,0,.48-.61.64.64,0,0,0-.29-.57,2.29,2.29,0,0,0-.87-.3l-2.23-.4a4.53,4.53,0,0,1-2.36-1.11,2.91,2.91,0,0,1-.88-2.21,3.34,3.34,0,0,1,.59-1.94,3.82,3.82,0,0,1,1.67-1.31,6.29,6.29,0,0,1,2.56-.48,6.56,6.56,0,0,1,2.63.5,4.37,4.37,0,0,1,1.82,1.42,4.17,4.17,0,0,1,.79,2.19h-3.45a1.48,1.48,0,0,0-.55-1.06,1.88,1.88,0,0,0-1.22-.39,2.37,2.37,0,0,0-1,.18.58.58,0,0,0-.38.55.54.54,0,0,0,.27.51,3,3,0,0,0,.8.25l2.4.44a4.87,4.87,0,0,1,2.5,1.09A2.59,2.59,0,0,1,1380.16,295.23Z" transform="translate(-336 0)"/><path class="cls-5" d="M1393.63,293.42a6.81,6.81,0,0,1-.63,2.95,5.35,5.35,0,0,1-1.76,2.13,4.56,4.56,0,0,1-2.66.79,4.29,4.29,0,0,1-1.83-.39,5,5,0,0,1-1.54-1.11v1.29h-3.3V284h3.59v4.84a4.8,4.8,0,0,1,1.44-.95,4.21,4.21,0,0,1,1.64-.32,4.56,4.56,0,0,1,2.66.78,5.25,5.25,0,0,1,1.76,2.12A6.89,6.89,0,0,1,1393.63,293.42Zm-3.75,0a2.61,2.61,0,0,0-.67-2,2.11,2.11,0,0,0-2.54-.36,2.08,2.08,0,0,0-.81.85,3.11,3.11,0,0,0-.31,1.49,3.23,3.23,0,0,0,.3,1.47,2.1,2.1,0,0,0,.81.88,2,2,0,0,0,1,.3,2.1,2.1,0,0,0,1.5-.66A2.61,2.61,0,0,0,1389.88,293.42Z" transform="translate(-336 0)"/><path class="cls-5" d="M1400.47,299.29a5.82,5.82,0,0,1-2.34-.46,5.71,5.71,0,0,1-1.87-1.26,6,6,0,0,1-1.26-1.87,6,6,0,0,1,0-4.57,6,6,0,0,1,1.26-1.87,5.71,5.71,0,0,1,1.87-1.26,6.16,6.16,0,0,1,4.67,0,5.61,5.61,0,0,1,1.87,1.26,6,6,0,0,1,1.26,1.87,6,6,0,0,1,0,4.57,6,6,0,0,1-1.26,1.87,5.61,5.61,0,0,1-1.87,1.26A5.77,5.77,0,0,1,1400.47,299.29Zm0-3.22a2,2,0,0,0,1.06-.3,2.15,2.15,0,0,0,.8-.88,3.21,3.21,0,0,0,.3-1.47,3.28,3.28,0,0,0-.3-1.48,2.08,2.08,0,0,0-3.73,0,3.28,3.28,0,0,0-.3,1.48,3.21,3.21,0,0,0,.3,1.47,2.17,2.17,0,0,0,.81.88A2.05,2.05,0,0,0,1400.47,296.07Z" transform="translate(-336 0)"/><path class="cls-5" d="M1414.73,294.22v-6.46h3.6v11.32H1415v-1.22a3.4,3.4,0,0,1-1.32,1,4.38,4.38,0,0,1-1.84.4,4.24,4.24,0,0,1-2-.48,3.32,3.32,0,0,1-1.42-1.45,5.29,5.29,0,0,1-.51-2.47v-7.13h3.59v6.46a1.94,1.94,0,0,0,.44,1.38,1.52,1.52,0,0,0,1.18.47,1.58,1.58,0,0,0,.73-.2,1.72,1.72,0,0,0,.62-.61A2,2,0,0,0,1414.73,294.22Z" transform="translate(-336 0)"/><path class="cls-5" d="M1424.29,293.86v5.22h-3.6V287.76h3.3v2a4.33,4.33,0,0,1,1.89-1.53,6.19,6.19,0,0,1,2.57-.55v3.75a10.25,10.25,0,0,0-2.2,0,2.21,2.21,0,0,0-1.45.65A2.66,2.66,0,0,0,1424.29,293.86Z" transform="translate(-336 0)"/><path class="cls-5" d="M1434.89,303.35a6.62,6.62,0,0,1-2.75-.54,4.56,4.56,0,0,1-1.9-1.52,4.38,4.38,0,0,1-.76-2.3h3.5a1.75,1.75,0,0,0,.58,1.16,1.94,1.94,0,0,0,1.31.4,2.07,2.07,0,0,0,1.53-.53,2.15,2.15,0,0,0,.51-1.55v-1.33a2.94,2.94,0,0,1-1.2,1,3.83,3.83,0,0,1-1.68.36,4.4,4.4,0,0,1-2.48-.73,5,5,0,0,1-1.77-2,5.78,5.78,0,0,1-.65-2.77,6.24,6.24,0,0,1,.61-2.83,4.82,4.82,0,0,1,1.68-1.94,4.4,4.4,0,0,1,2.46-.71,4.93,4.93,0,0,1,1.88.33,4.2,4.2,0,0,1,1.45,1v-1.15h3.3v10.66A4.54,4.54,0,0,1,1439,302,6.05,6.05,0,0,1,1434.89,303.35ZM1432.77,293a2.49,2.49,0,0,0,.54,1.68,1.84,1.84,0,0,0,1.46.63,2.07,2.07,0,0,0,1.1-.29,2,2,0,0,0,.74-.82,2.77,2.77,0,0,0,.26-1.22,2.42,2.42,0,0,0-.58-1.7,1.93,1.93,0,0,0-1.52-.64,1.82,1.82,0,0,0-1.46.64A2.59,2.59,0,0,0,1432.77,293Z" transform="translate(-336 0)"/></g><g id="Calque_25" data-name="Calque 25"><rect class="cls-6" x="651" y="294" width="63" height="23"/><path class="cls-5" d="M999.84,308.47h-1.91v4.61h-4V298h5.89a8.92,8.92,0,0,1,3.4.58,4.61,4.61,0,0,1,2.18,1.72,5.13,5.13,0,0,1,.76,2.85,5.35,5.35,0,0,1-.76,2.9,4.85,4.85,0,0,1-2.18,1.82A8.36,8.36,0,0,1,999.84,308.47Zm0-7.16h-1.89v3.81h1.89a2.62,2.62,0,0,0,1.79-.54,1.81,1.81,0,0,0,.61-1.41,1.64,1.64,0,0,0-.61-1.37A2.85,2.85,0,0,0,999.82,301.31Z" transform="translate(-336 0)"/><path class="cls-5" d="M1014.32,313.08V312a3.57,3.57,0,0,1-1.37,1,5,5,0,0,1-1.87.32,4.09,4.09,0,0,1-2.85-1,3.32,3.32,0,0,1-1.09-2.58,2.85,2.85,0,0,1,1.31-2.53,6.6,6.6,0,0,1,3.72-.88c.31,0,.61,0,.89,0s.54.06.78.1v-.55a1.54,1.54,0,0,0-.41-1.14,1.65,1.65,0,0,0-1.17-.39,1.69,1.69,0,0,0-1.17.39,1.86,1.86,0,0,0-.54,1.14h-3.24a4.8,4.8,0,0,1,.76-2.3,4.35,4.35,0,0,1,1.74-1.52,5.44,5.44,0,0,1,2.47-.54,5.17,5.17,0,0,1,3.64,1.2,4.33,4.33,0,0,1,1.3,3.35v7Zm-3.79-3.45a1.1,1.1,0,0,0,.37.86,1.53,1.53,0,0,0,1,.31,2.17,2.17,0,0,0,1.41-.4,1.3,1.3,0,0,0,.51-1.09v-.72c-.27,0-.52-.09-.74-.11s-.46,0-.69,0a2.74,2.74,0,0,0-1.39.29A1,1,0,0,0,1010.53,309.63Z" transform="translate(-336 0)"/><path class="cls-5" d="M1023.08,307.86v5.22h-3.6V301.76h3.3v2a4.24,4.24,0,0,1,1.88-1.53,6.2,6.2,0,0,1,2.58-.55v3.75a10.25,10.25,0,0,0-2.2,0,2.19,2.19,0,0,0-1.45.65A2.66,2.66,0,0,0,1023.08,307.86Z" transform="translate(-336 0)"/><path class="cls-5" d="M1032.71,299.12a1.9,1.9,0,0,1-.64,1.47,2.69,2.69,0,0,1-3.34,0,2,2,0,0,1,0-2.95,2.69,2.69,0,0,1,3.34,0A1.9,1.9,0,0,1,1032.71,299.12Zm-.48,14h-3.6V301.76h3.6Z" transform="translate(-336 0)"/><path class="cls-5" d="M1044.62,309.23a3.62,3.62,0,0,1-1.34,3,7.47,7.47,0,0,1-7.85,0,4.24,4.24,0,0,1-1.56-3.08h3.45a1.35,1.35,0,0,0,.59,1.14,2.55,2.55,0,0,0,1.52.42,3.31,3.31,0,0,0,1.08-.17.61.61,0,0,0,.47-.61.63.63,0,0,0-.28-.57,2.29,2.29,0,0,0-.87-.3l-2.24-.4a4.5,4.5,0,0,1-2.35-1.11,2.91,2.91,0,0,1-.89-2.21,3.34,3.34,0,0,1,.59-1.94,3.85,3.85,0,0,1,1.68-1.31,6.24,6.24,0,0,1,2.55-.48,6.49,6.49,0,0,1,2.63.5,4.31,4.31,0,0,1,1.82,1.42,4.17,4.17,0,0,1,.79,2.19H1041a1.47,1.47,0,0,0-.54-1.06,1.91,1.91,0,0,0-1.23-.39,2.4,2.4,0,0,0-1,.18.58.58,0,0,0-.37.55.54.54,0,0,0,.27.51,2.91,2.91,0,0,0,.8.25l2.4.44a4.88,4.88,0,0,1,2.49,1.09A2.59,2.59,0,0,1,1044.62,309.23Z" transform="translate(-336 0)"/></g></g><g id="dots"><rect class="cls-6" x="659.5" y="266.5" width="25" height="25"/><circle class="cls-6" cx="868" cy="910" r="13"/><circle class="cls-6" cx="751" cy="873" r="13"/><circle class="cls-6" cx="851" cy="637" r="13"/><circle class="cls-6" cx="867" cy="463" r="13"/><circle class="cls-6" cx="1033" cy="874" r="13"/><circle class="cls-6" cx="1122" cy="993" r="13"/><circle class="cls-6" cx="1071" cy="317" r="13"/><circle class="cls-6" cx="734" cy="80" r="13"/><circle class="cls-6" cx="576" cy="211" r="13"/><circle class="cls-6" cx="139" cy="283" r="13"/><circle class="cls-6" cx="357" cy="444" r="13"/><circle class="cls-6" cx="566" cy="869" r="13"/><circle class="cls-6" cx="383.5" cy="999.5" r="5.5"/><circle class="cls-6" cx="281.5" cy="1049.5" r="5.5"/><circle class="cls-6" cx="139.5" cy="957.5" r="5.5"/><circle class="cls-6" cx="181.5" cy="834.5" r="5.5"/><circle class="cls-6" cx="138.5" cy="740.5" r="5.5"/><circle class="cls-6" cx="106.5" cy="629.5" r="5.5"/><circle class="cls-6" cx="414" cy="720" r="13"/></g></g></g></svg>