<svg className="water hide-cities" xmlns="http://www.w3.org/2000/svg" viewBox="0 0 1291 1080"><g id="Calque_36" data-name="Calque 36"><rect class="cls-1" width="1291" height="1080" /></g><g id="Calque_34" data-name="Calque 34"><g id="Gironde"><path class="cls-12" d="M737.68,638.06l13.41,41.2,0,.15a5,5,0,0,1,.21,1.06l3.42,40.84-1.11-2.62,27.53,33.62-1.33-1,27.8,14.4.1.05a3.61,3.61,0,0,1,1.82,2.28l4.75,18.08L812.71,784l48.6,28.7.07,0a2.51,2.51,0,0,1,1,1l24.33,47.36,0,0a1.94,1.94,0,0,1,.19.84l-.48,33.51v0a1.4,1.4,0,0,1-.88,1.26L846.3,911.74h0a.65.65,0,0,1-.2,0l-32,2.54.3-.26L811.14,927l-.06-.16,8.67,5.53-8.83-5.27a.15.15,0,0,1-.06-.16l2.81-13.05a.34.34,0,0,1,.29-.26h0l32-3.46-.22.06,38.77-16-.88,1.3L883.12,862l.22.88-25.67-46.64,1,1.06L809.29,790a3.32,3.32,0,0,1-1.59-2l0-.11L802.42,770l1.92,2.33-28.2-13.6a3.88,3.88,0,0,1-1.24-.94l-.09-.1-28.47-32.83a4.45,4.45,0,0,1-1.09-2.48l0-.14-4.58-40.71.26,1.21-14.59-40.8a6,6,0,1,1,11.3-4S737.66,638,737.68,638.06Z" transform="translate(-336 0)" /></g><g id="Rhône"><path class="cls-12" d="M1287.94,591.53l-23,19.48,1.84-3.26-8.35,44.6,0,.13a4.88,4.88,0,0,1-3.51,3.81l-14.06,3.81-.12,0a4.71,4.71,0,0,1-5.22-2l-15.66-25.22,4.65,1.91-40.12,8.46,2.86-2.76-10,35.94.1-1.15,4.7,58.82v.07a2.48,2.48,0,0,1-.6,1.81l-13.21,15,.54-1.47-.28,21v.06a2,2,0,0,1-.06.43l-10.53,38.87-.23-1.19,17.18,24.27v0a1,1,0,0,1-.24,1.41l-.06,0-17.65,10.51.35-.52-2.76,15.68v-.22l10,38-11.06-37.69a.5.5,0,0,1,0-.21h0l2.33-15.76a.76.76,0,0,1,.33-.5h0l17.35-11-.29,1.48-17.82-23.8a1.37,1.37,0,0,1-.24-1.15v0l9.47-39.15-.06.49-.28-21a2.16,2.16,0,0,1,.5-1.42l0-.05,12.79-15.36-.59,1.88-6.3-58.67a3.11,3.11,0,0,1,.07-1.06l0-.1,9-36.19a3.75,3.75,0,0,1,2.75-2.74l.11,0,39.88-9.54a4.28,4.28,0,0,1,4.58,1.8l.07.11,16.34,24.78-5.34-2,13.94-4.19-3.54,3.94,7.15-44.81a5.32,5.32,0,0,1,1.72-3.16l.12-.11,22.48-20.1a6,6,0,0,1,8,8.95Z" transform="translate(-336 0)" /></g><g id="Rhône-2" data-name="Rhône"><path class="cls-12" d="M1287.94,591.53l-23,19.48,1.85-3.26-8.35,44.6,0,.13a4.9,4.9,0,0,1-3.53,3.82l-14,3.81-.13,0a4.71,4.71,0,0,1-5.23-2.06l-15.67-25.22,4.68,1.93-40.12,8.46,2.88-2.78-10,35.94.09-1.17,4.72,58.82v.07a2.53,2.53,0,0,1-.62,1.85l-13.2,15,.56-1.5-.28,21v.06a2.34,2.34,0,0,1-.07.45l-10.52,38.87-.24-1.25,17.18,24.27,0,0a1.08,1.08,0,0,1-.26,1.5l-.07.05L1156.93,845l.38-.57-2.76,15.69h0a.6.6,0,0,1-.41.47l-14.52,4.31.25-.22L1126.73,892l12.4-27.67a.41.41,0,0,1,.24-.21h0l14.39-4.69-.41.48,2.33-15.75a.81.81,0,0,1,.36-.55h0l17.36-11-.31,1.57-17.82-23.8a1.42,1.42,0,0,1-.25-1.2v0l9.48-39.14-.07.5-.28-21a2.24,2.24,0,0,1,.52-1.45l0,0,12.8-15.36-.61,1.91-6.28-58.67a2.93,2.93,0,0,1,.07-1.07l0-.1,9-36.19a3.78,3.78,0,0,1,2.78-2.76l.1,0,39.88-9.54a4.33,4.33,0,0,1,4.61,1.82l.07.11,16.33,24.78-5.36-2,14-4.19-3.55,3.95,7.15-44.81a5.41,5.41,0,0,1,1.73-3.17l.12-.1,22.48-20.1a6,6,0,0,1,8,8.95Z" transform="translate(-336 0)" /></g><g id="Loire"><polygon class="cls-12" points="321.25 425.44 353.34 438.73 349.42 438.6 394.34 424.12 395.43 423.77 396.48 423.88 449.44 429.23 451.28 429.42 452.48 430.71 469.32 448.87 466 447.43 492.34 447.67 491.35 447.79 559.15 432.39 557.88 432.96 617.75 391.87 619.09 390.95 620.55 391.5 679.11 413.57 679.98 413.9 680.41 414.66 700.51 449.99 700.72 450.35 700.77 450.72 708.64 501.73 707.92 500.61 737.75 520.88 737.99 521.05 738.13 521.27 758.34 553.23 757.74 552.8 772.67 556.66 773.26 556.81 773.32 557.4 780.3 619.96 780.29 619.9 790.73 651.92 779.71 620.1 779.7 620.07 779.7 620.04 771.6 557.6 772.25 558.34 757.26 554.75 756.88 554.66 756.66 554.32 735.87 522.73 736.25 523.12 706.08 503.39 705.48 503 705.36 502.27 696.57 451.4 696.83 452.13 676.1 417.17 677.39 418.26 618.45 397.24 621.25 396.88 562.13 439.04 561.57 439.43 560.85 439.61 493.34 456.21 492.89 456.32 492.34 456.33 466 456.57 464.07 456.58 462.68 455.13 445.52 437.29 448.56 438.77 395.52 434.36 397.66 434.12 353 449.4 351.07 450.06 349.08 449.27 316.75 436.56 321.25 425.44" /></g><g id="Seine"><polygon class="cls-12" points="504.95 203.42 552.24 210.68 553.7 210.9 554.74 211.72 593.84 242.27 593.27 241.9 652.5 275.7 653.47 276.25 653.95 277.14 674.77 315.07 673.92 314.1 702.13 335.97 700.04 335.46 764.69 325.2 765.54 325.06 766.16 325.59 799.79 354.05 799.93 354.17 800.01 354.29 832.38 401.73 832.51 401.92 832.45 402.13 828.78 414.16 828.73 413.89 837.03 424.68 837.05 424.71 837.05 424.74 838 433 836.83 424.76 836.85 424.82 828.27 414.26 828.17 414.14 828.22 413.99 831.55 401.87 831.62 402.27 797.99 355.71 798.21 355.95 763.84 328.41 765.31 328.8 700.96 340.8 699.84 341.01 698.87 340.3 670.08 319.19 669.58 318.82 669.23 318.21 647.39 280.86 648.85 282.3 588.73 250.1 588.49 249.97 588.16 249.73 548.26 220.25 550.76 221.29 503.29 215.31 504.95 203.42" /></g></g></svg>